$MeshFormat
4.1 0 8
$EndMeshFormat
$Entities
0 0 1 0
1 232.06 39.872 -31.5 237.035 50.558 0 0 0 
$EndEntities
$Nodes
1 768 1 768
2 1 0 768
1
2
3
4
5
6
7
8
9
10
11
12
13
14
15
16
17
18
19
20
21
22
23
24
25
26
27
28
29
30
31
32
33
34
35
36
37
38
39
40
41
42
43
44
45
46
47
48
49
50
51
52
53
54
55
56
57
58
59
60
61
62
63
64
65
66
67
68
69
70
71
72
73
74
75
76
77
78
79
80
81
82
83
84
85
86
87
88
89
90
91
92
93
94
95
96
97
98
99
100
101
102
103
104
105
106
107
108
109
110
111
112
113
114
115
116
117
118
119
120
121
122
123
124
125
126
127
128
129
130
131
132
133
134
135
136
137
138
139
140
141
142
143
144
145
146
147
148
149
150
151
152
153
154
155
156
157
158
159
160
161
162
163
164
165
166
167
168
169
170
171
172
173
174
175
176
177
178
179
180
181
182
183
184
185
186
187
188
189
190
191
192
193
194
195
196
197
198
199
200
201
202
203
204
205
206
207
208
209
210
211
212
213
214
215
216
217
218
219
220
221
222
223
224
225
226
227
228
229
230
231
232
233
234
235
236
237
238
239
240
241
242
243
244
245
246
247
248
249
250
251
252
253
254
255
256
257
258
259
260
261
262
263
264
265
266
267
268
269
270
271
272
273
274
275
276
277
278
279
280
281
282
283
284
285
286
287
288
289
290
291
292
293
294
295
296
297
298
299
300
301
302
303
304
305
306
307
308
309
310
311
312
313
314
315
316
317
318
319
320
321
322
323
324
325
326
327
328
329
330
331
332
333
334
335
336
337
338
339
340
341
342
343
344
345
346
347
348
349
350
351
352
353
354
355
356
357
358
359
360
361
362
363
364
365
366
367
368
369
370
371
372
373
374
375
376
377
378
379
380
381
382
383
384
385
386
387
388
389
390
391
392
393
394
395
396
397
398
399
400
401
402
403
404
405
406
407
408
409
410
411
412
413
414
415
416
417
418
419
420
421
422
423
424
425
426
427
428
429
430
431
432
433
434
435
436
437
438
439
440
441
442
443
444
445
446
447
448
449
450
451
452
453
454
455
456
457
458
459
460
461
462
463
464
465
466
467
468
469
470
471
472
473
474
475
476
477
478
479
480
481
482
483
484
485
486
487
488
489
490
491
492
493
494
495
496
497
498
499
500
501
502
503
504
505
506
507
508
509
510
511
512
513
514
515
516
517
518
519
520
521
522
523
524
525
526
527
528
529
530
531
532
533
534
535
536
537
538
539
540
541
542
543
544
545
546
547
548
549
550
551
552
553
554
555
556
557
558
559
560
561
562
563
564
565
566
567
568
569
570
571
572
573
574
575
576
577
578
579
580
581
582
583
584
585
586
587
588
589
590
591
592
593
594
595
596
597
598
599
600
601
602
603
604
605
606
607
608
609
610
611
612
613
614
615
616
617
618
619
620
621
622
623
624
625
626
627
628
629
630
631
632
633
634
635
636
637
638
639
640
641
642
643
644
645
646
647
648
649
650
651
652
653
654
655
656
657
658
659
660
661
662
663
664
665
666
667
668
669
670
671
672
673
674
675
676
677
678
679
680
681
682
683
684
685
686
687
688
689
690
691
692
693
694
695
696
697
698
699
700
701
702
703
704
705
706
707
708
709
710
711
712
713
714
715
716
717
718
719
720
721
722
723
724
725
726
727
728
729
730
731
732
733
734
735
736
737
738
739
740
741
742
743
744
745
746
747
748
749
750
751
752
753
754
755
756
757
758
759
760
761
762
763
764
765
766
767
768
234.9999 40.3753 -3.5000
232.0596 49.6360 -3.5000
235.2003 40.3929 -10.0000
232.1842 49.7500 -10.0000
235.3622 40.3608 -15.0000
232.3009 49.8640 -15.0000
235.5800 40.2968 -20.0000
232.5212 49.9540 -20.0000
236.2267 40.0276 -25.0000
232.5601 50.2166 -25.0000
236.4918 39.9094 -30.0000
232.8362 50.3485 -30.0000
236.7378 39.8716 -35.0000
233.1588 50.5584 -35.0000
235.0160 40.5532 -3.5000
235.0555 40.7291 -3.5000
235.0581 40.9070 -3.5000
234.9514 41.0675 -3.5000
234.8721 41.2364 -3.5000
234.8053 41.4089 -3.5000
234.7201 41.5767 -3.5000
234.7082 41.7518 -3.5000
234.6991 41.9297 -3.5000
234.6688 42.1079 -3.5000
234.7093 42.2839 -3.5000
234.8067 42.4398 -3.5000
234.7245 42.5997 -3.5000
234.7164 42.7792 -3.5000
234.7110 42.9588 -3.5000
234.6635 43.1307 -3.5000
234.5879 43.3016 -3.5000
234.5194 43.4728 -3.5000
234.5208 43.6524 -3.5000
234.5351 43.8314 -3.5000
234.5754 44.0079 -3.5000
234.6349 44.1706 -3.5000
234.6276 44.3502 -3.5000
234.6280 44.5299 -3.5000
234.5879 44.6989 -3.5000
234.5630 44.8732 -3.5000
234.5660 45.0529 -3.5000
234.5368 45.2309 -3.5000
234.4978 45.4085 -3.5000
234.4505 45.5850 -3.5000
234.3990 45.7611 -3.5000
234.3479 45.9372 -3.5000
234.2889 46.1121 -3.5000
234.2295 46.2870 -3.5000
234.1773 46.4630 -3.5000
234.1253 46.6391 -3.5000
234.0605 46.8132 -3.5000
233.9967 46.9875 -3.5000
233.9574 47.1651 -3.5000
233.9182 47.3427 -3.5000
233.8042 47.5047 -3.5000
233.6880 47.6664 -3.5000
233.5895 47.8329 -3.5000
233.5086 48.0040 -3.5000
233.3765 48.1604 -3.5000
233.2424 48.3163 -3.5000
233.0889 48.4642 -3.5000
232.9185 48.6023 -3.5000
232.7003 48.7095 -3.5000
232.4890 48.8230 -3.5000
232.3095 48.9559 -3.5000
232.1726 49.1089 -3.5000
232.1647 49.2884 -3.5000
232.1548 49.4678 -3.5000
235.2394 40.5681 -10.0000
235.2690 40.7443 -10.0000
235.3123 40.9188 -10.0000
235.4051 41.0818 -10.0000
235.4480 41.2560 -10.0000
235.4512 41.4330 -10.0000
235.4229 41.6094 -10.0000
235.3886 41.7852 -10.0000
235.3503 41.9606 -10.0000
235.3142 42.1362 -10.0000
235.2812 42.3122 -10.0000
235.2531 42.4887 -10.0000
235.2261 42.6653 -10.0000
235.2008 42.8420 -10.0000
235.1768 43.0188 -10.0000
235.1588 43.1959 -10.0000
235.1464 43.3734 -10.0000
235.1400 43.5510 -10.0000
235.1334 43.7286 -10.0000
235.1279 43.9063 -10.0000
235.1236 44.0839 -10.0000
235.1203 44.2616 -10.0000
235.1216 44.4393 -10.0000
235.1228 44.6169 -10.0000
235.1257 44.7946 -10.0000
235.1247 44.9722 -10.0000
235.1127 45.1496 -10.0000
235.1005 45.3271 -10.0000
235.0859 45.5045 -10.0000
235.0652 45.6816 -10.0000
235.0445 45.8587 -10.0000
235.0210 46.0356 -10.0000
234.9968 46.2125 -10.0000
234.9709 46.3893 -10.0000
234.9432 46.5659 -10.0000
234.8931 46.7401 -10.0000
234.8325 46.9129 -10.0000
234.7686 47.0851 -10.0000
234.6881 47.2541 -10.0000
234.5937 47.4199 -10.0000
234.4921 47.5837 -10.0000
234.3894 47.7474 -10.0000
234.2868 47.9112 -10.0000
234.1726 48.0716 -10.0000
234.0449 48.2275 -10.0000
233.9023 48.3777 -10.0000
233.7388 48.5183 -10.0000
233.5682 48.6555 -10.0000
233.3907 48.7891 -10.0000
233.2089 48.9205 -10.0000
233.0248 49.0508 -10.0000
232.8479 49.1854 -10.0000
232.6784 49.3244 -10.0000
232.5085 49.4635 -10.0000
232.3435 49.6052 -10.0000
235.4373 40.5313 -15.0000
235.5305 40.6965 -15.0000
235.6295 40.8599 -15.0000
235.7221 41.0255 -15.0000
235.7908 41.1973 -15.0000
235.8211 41.3752 -15.0000
235.7977 41.5537 -15.0000
235.7502 41.7300 -15.0000
235.7045 41.9065 -15.0000
235.6605 42.0833 -15.0000
235.6264 42.2613 -15.0000
235.5920 42.4393 -15.0000
235.5619 42.6178 -15.0000
235.5368 42.7966 -15.0000
235.5172 42.9758 -15.0000
235.4974 43.1550 -15.0000
235.4830 43.3345 -15.0000
235.4749 43.5142 -15.0000
235.4652 43.6939 -15.0000
235.4607 43.8736 -15.0000
235.4607 44.0534 -15.0000
235.4607 44.2332 -15.0000
235.4607 44.4130 -15.0000
235.4615 44.5928 -15.0000
235.4626 44.7726 -15.0000
235.4659 44.9524 -15.0000
235.4693 45.1322 -15.0000
235.4671 45.3120 -15.0000
235.4636 45.4918 -15.0000
235.4594 45.6715 -15.0000
235.4521 45.8513 -15.0000
235.4407 46.0309 -15.0000
235.4144 46.2097 -15.0000
235.3879 46.3886 -15.0000
235.3564 46.5671 -15.0000
235.3092 46.7439 -15.0000
235.2510 46.9191 -15.0000
235.1698 47.0902 -15.0000
235.0824 47.2599 -15.0000
234.9883 47.4280 -15.0000
234.8822 47.5928 -15.0000
234.7905 47.7617 -15.0000
234.6986 47.9306 -15.0000
234.6010 48.0980 -15.0000
234.4911 48.2622 -15.0000
234.3676 48.4221 -15.0000
234.1966 48.5614 -15.0000
234.0154 48.6955 -15.0000
233.8239 48.8235 -15.0000
233.6323 48.9518 -15.0000
233.4391 49.0794 -15.0000
233.2456 49.2071 -15.0000
233.0518 49.3349 -15.0000
232.8576 49.4628 -15.0000
232.6700 49.5950 -15.0000
232.4855 49.7294 -15.0000
235.7619 40.4090 -20.0000
235.9753 40.4839 -20.0000
236.1841 40.5660 -20.0000
236.3380 40.6994 -20.0000
236.3721 40.8741 -20.0000
236.3260 41.0492 -20.0000
236.2450 41.2173 -20.0000
236.1690 41.3868 -20.0000
236.1029 41.5587 -20.0000
236.0442 41.7321 -20.0000
235.9993 41.9078 -20.0000
235.9572 42.0839 -20.0000
235.9245 42.2612 -20.0000
235.8962 42.4389 -20.0000
235.8689 42.6166 -20.0000
235.8452 42.7947 -20.0000
235.8247 42.9729 -20.0000
235.8102 43.1515 -20.0000
235.7987 43.3302 -20.0000
235.7933 43.5090 -20.0000
235.7880 43.6879 -20.0000
235.7812 43.8667 -20.0000
235.7815 44.0456 -20.0000
235.7814 44.2245 -20.0000
235.7801 44.4034 -20.0000
235.7787 44.5823 -20.0000
235.7771 44.7612 -20.0000
235.7756 44.9401 -20.0000
235.7739 45.1190 -20.0000
235.7720 45.2979 -20.0000
235.7701 45.4768 -20.0000
235.7681 45.6557 -20.0000
235.7637 45.8345 -20.0000
235.7588 46.0134 -20.0000
235.7575 46.1923 -20.0000
235.7532 46.3711 -20.0000
235.7389 46.5497 -20.0000
235.6968 46.7262 -20.0000
235.6465 46.9018 -20.0000
235.5781 47.0744 -20.0000
235.4921 47.2434 -20.0000
235.3959 47.4100 -20.0000
235.2952 47.5754 -20.0000
235.1930 47.7406 -20.0000
235.0901 47.9056 -20.0000
234.9887 48.0711 -20.0000
234.8880 48.2369 -20.0000
234.7773 48.3999 -20.0000
234.6248 48.5472 -20.0000
234.4461 48.6813 -20.0000
234.2517 48.8060 -20.0000
234.0552 48.9297 -20.0000
233.8564 49.0521 -20.0000
233.6573 49.1747 -20.0000
233.4603 49.2990 -20.0000
233.2663 49.4256 -20.0000
233.0727 49.5529 -20.0000
232.8847 49.6838 -20.0000
232.7006 49.8175 -20.0000
236.3840 40.1585 -25.0000
236.5385 40.2914 -25.0000
236.6565 40.4440 -25.0000
236.7096 40.6164 -25.0000
236.7090 40.7940 -25.0000
236.6560 40.9665 -25.0000
236.5277 41.1153 -25.0000
236.4238 41.2743 -25.0000
236.3708 41.4476 -25.0000
236.3229 41.6217 -25.0000
236.2781 41.7964 -25.0000
236.2416 41.9721 -25.0000
236.2095 42.1483 -25.0000
236.1851 42.3252 -25.0000
236.1608 42.5021 -25.0000
236.1369 42.6790 -25.0000
236.1162 42.8562 -25.0000
236.0980 43.0335 -25.0000
236.0818 43.2109 -25.0000
236.0673 43.3884 -25.0000
236.0566 43.5660 -25.0000
236.0496 43.7438 -25.0000
236.0462 43.9216 -25.0000
236.0466 44.0994 -25.0000
236.0476 44.2772 -25.0000
236.0436 44.4550 -25.0000
236.0384 44.6328 -25.0000
236.0336 44.8105 -25.0000
236.0320 44.9883 -25.0000
236.0318 45.1662 -25.0000
236.0348 45.3440 -25.0000
236.0429 45.5217 -25.0000
236.0489 45.6994 -25.0000
236.0525 45.8772 -25.0000
236.0639 46.0548 -25.0000
236.0777 46.2324 -25.0000
236.0820 46.4102 -25.0000
236.0727 46.5879 -25.0000
236.0593 46.7654 -25.0000
236.0347 46.9424 -25.0000
235.9931 47.1179 -25.0000
235.9265 47.2895 -25.0000
235.8250 47.4533 -25.0000
235.7167 47.6154 -25.0000
235.6073 47.7773 -25.0000
235.4954 47.9385 -25.0000
235.3876 48.1010 -25.0000
235.2895 48.2662 -25.0000
235.1920 48.4315 -25.0000
235.0426 48.5785 -25.0000
234.8535 48.7048 -25.0000
234.6520 48.8230 -25.0000
234.4477 48.9395 -25.0000
234.2436 49.0565 -25.0000
234.0373 49.1722 -25.0000
233.8293 49.2869 -25.0000
233.6235 49.4037 -25.0000
233.4242 49.5253 -25.0000
233.2380 49.6558 -25.0000
233.0576 49.7901 -25.0000
232.8839 49.9280 -25.0000
232.7220 50.0722 -25.0000
236.6346 40.0508 -30.0000
236.7591 40.2017 -30.0000
236.8518 40.3657 -30.0000
236.8949 40.5406 -30.0000
236.8889 40.7192 -30.0000
236.8413 40.8939 -30.0000
236.7528 41.0594 -30.0000
236.6478 41.2197 -30.0000
236.5643 41.3866 -30.0000
236.5242 41.5628 -30.0000
236.5006 41.7406 -30.0000
236.4854 41.9190 -30.0000
236.4691 42.0973 -30.0000
236.4514 42.2756 -30.0000
236.4339 42.4539 -30.0000
236.4165 42.6322 -30.0000
236.3994 42.8105 -30.0000
236.3836 42.9889 -30.0000
236.3670 43.1672 -30.0000
236.3500 43.3455 -30.0000
236.3414 43.5241 -30.0000
236.3329 43.7028 -30.0000
236.3249 43.8814 -30.0000
236.3205 44.0601 -30.0000
236.3165 44.2389 -30.0000
236.3145 44.4176 -30.0000
236.3141 44.5963 -30.0000
236.3084 44.7750 -30.0000
236.3004 44.9537 -30.0000
236.3020 45.1324 -30.0000
236.3038 45.3111 -30.0000
236.3003 45.4899 -30.0000
236.2968 45.6686 -30.0000
236.2977 45.8473 -30.0000
236.3071 46.0259 -30.0000
236.3246 46.2042 -30.0000
236.3660 46.3802 -30.0000
236.4339 46.5526 -30.0000
236.4643 46.7300 -30.0000
236.4631 46.9085 -30.0000
236.4278 47.0855 -30.0000
236.3677 47.2593 -30.0000
236.2878 47.4297 -30.0000
236.1860 47.5946 -30.0000
236.0731 47.7563 -30.0000
235.9562 47.9170 -30.0000
235.8511 48.0813 -30.0000
235.7394 48.2437 -30.0000
235.5987 48.3958 -30.0000
235.4479 48.5439 -30.0000
235.2877 48.6879 -30.0000
235.1018 48.8174 -30.0000
234.8965 48.9345 -30.0000
234.6859 49.0478 -30.0000
234.4722 49.1591 -30.0000
234.2583 49.2706 -30.0000
234.0429 49.3812 -30.0000
233.8386 49.5008 -30.0000
233.6354 49.6214 -30.0000
233.4517 49.7549 -30.0000
233.2795 49.8949 -30.0000
233.1153 50.0391 -30.0000
232.9741 50.1930 -30.0000
236.8445 40.0307 -35.0000
236.9317 40.1968 -35.0000
236.9981 40.3679 -35.0000
237.0345 40.5447 -35.0000
237.0314 40.7235 -35.0000
236.9814 40.8982 -35.0000
236.8963 41.0651 -35.0000
236.7893 41.2248 -35.0000
236.7096 41.3933 -35.0000
236.6759 41.5704 -35.0000
236.6593 41.7490 -35.0000
236.6428 41.9275 -35.0000
236.6295 42.1062 -35.0000
236.6175 42.2850 -35.0000
236.6058 42.4637 -35.0000
236.5942 42.6425 -35.0000
236.5843 42.8213 -35.0000
236.5745 43.0002 -35.0000
236.5649 43.1790 -35.0000
236.5558 43.3579 -35.0000
236.5489 43.5368 -35.0000
236.5463 43.7157 -35.0000
236.5432 43.8947 -35.0000
236.5378 44.0736 -35.0000
236.5333 44.2526 -35.0000
236.5329 44.4315 -35.0000
236.5292 44.6105 -35.0000
236.5289 44.7894 -35.0000
236.5337 44.9684 -35.0000
236.5381 45.1473 -35.0000
236.5422 45.3263 -35.0000
236.5502 45.5051 -35.0000
236.5592 45.6840 -35.0000
236.5706 45.8628 -35.0000
236.5853 46.0415 -35.0000
236.5990 46.2202 -35.0000
236.6485 46.3957 -35.0000
236.7247 46.5668 -35.0000
236.7761 46.7421 -35.0000
236.7907 46.9207 -35.0000
236.7769 47.0994 -35.0000
236.7353 47.2761 -35.0000
236.6749 47.4503 -35.0000
236.5951 47.6209 -35.0000
236.5051 47.7893 -35.0000
236.4063 47.9556 -35.0000
236.2986 48.1193 -35.0000
236.1758 48.2785 -35.0000
236.0394 48.4324 -35.0000
235.8759 48.5748 -35.0000
235.6992 48.7103 -35.0000
235.5081 48.8371 -35.0000
235.3007 48.9530 -35.0000
235.0949 49.0705 -35.0000
234.8856 49.1857 -35.0000
234.6742 49.2997 -35.0000
234.4624 49.4137 -35.0000
234.2582 49.5338 -35.0000
234.0648 49.6613 -35.0000
233.8819 49.7956 -35.0000
233.7147 49.9385 -35.0000
233.5546 50.0849 -35.0000
233.4164 50.2404 -35.0000
233.2867 50.3990 -35.0000
235.1001 40.3841 -6.8000
232.1218 49.6930 -6.8000
235.2813 40.3769 -12.5000
232.2424 49.8070 -12.5000
235.4711 40.3289 -17.5000
232.4109 49.9091 -17.5000
235.7420 40.2299 -21.3000
235.9038 40.1627 -22.6000
236.0654 40.0952 -23.8000
232.5406 50.0853 -22.5000
236.3593 39.9686 -27.5000
232.6979 50.2826 -27.5000
236.6148 39.8906 -32.5000
232.9971 50.4535 -32.5000
234.7364 46.4610 -8.2000
234.6455 46.7905 -8.3000
234.9156 41.6717 -5.6000
234.5144 47.1223 -8.3000
234.4768 46.2347 -5.5000
234.3673 46.5842 -5.5000
235.1333 42.0069 -8.0000
234.1621 47.2765 -6.0000
234.8202 45.8990 -7.8000
235.0359 41.3655 -5.7000
234.1288 47.7699 -7.9000
234.0471 47.4954 -5.7000
234.9332 43.4580 -7.7000
234.8387 44.2645 -6.2000
233.7247 47.9549 -5.8000
234.8579 45.5860 -7.7000
234.7338 45.3431 -5.9000
234.9033 45.0534 -7.7000
234.7401 43.7329 -5.9000
234.7548 43.9114 -6.0000
234.6425 45.6713 -5.6000
233.7861 48.2213 -8.1000
232.5801 49.1681 -7.7000
234.7870 44.0798 -6.2000
234.9108 42.2823 -5.7000
234.8624 42.1597 -5.5000
234.2482 46.9376 -5.6000
234.5950 46.9531 -8.4000
234.7064 46.6177 -8.3000
235.2482 41.1879 -7.7000
234.9138 41.8261 -5.5000
232.7418 48.8849 -6.0000
234.7823 44.7895 -5.6000
234.9092 44.5287 -7.3000
234.5353 46.0597 -5.5000
233.4875 48.4902 -7.7000
233.1825 48.6297 -6.3000
234.9507 42.5682 -6.2000
234.9572 43.1414 -7.1000
235.1892 41.6612 -8.0000
234.9209 42.8404 -6.3000
233.0112 48.7676 -6.5000
234.8135 43.3028 -5.9000
234.3344 47.4425 -8.2000
234.7230 46.1818 -7.5000
234.7668 45.1698 -6.1000
234.9271 45.2583 -8.0000
235.1838 41.0561 -6.8000
234.3199 46.7575 -5.6000
233.9501 47.6542 -5.7000
232.4114 49.2987 -7.3000
234.2247 47.6217 -8.0000
234.2151 47.0893 -5.8000
234.9298 43.6437 -7.9000
234.7356 43.5546 -5.8000
234.4216 46.4063 -5.5000
235.1660 41.8509 -8.0000
234.0239 47.9255 -8.0000
233.5215 48.2950 -6.2000
234.8373 45.7502 -7.7000
235.2359 41.5029 -8.1000
234.7561 43.4297 -5.8000
234.8777 45.4349 -7.6000
232.5727 48.9904 -6.0000
234.4305 47.2817 -8.3000
233.8424 47.8039 -5.8000
234.5884 45.8683 -5.6000
234.9109 44.8825 -7.3000
235.1220 40.4502 -7.2000
234.7910 44.6459 -5.7000
235.0930 42.2003 -7.8000
234.9235 43.8139 -7.9000
233.8927 48.0903 -8.0000
234.3774 46.9983 -6.8000
234.9630 41.5177 -5.5000
235.0483 42.7085 -7.8000
235.2755 41.3479 -8.1000
232.9792 48.9288 -8.3000
232.1742 49.6195 -6.6000
234.9225 42.0015 -5.9000
234.6737 45.5228 -5.6000
234.9869 44.1469 -8.5000
234.9333 43.9925 -7.9000
232.8125 49.0267 -8.2000
234.7092 44.9379 -5.4000
235.0968 42.3855 -7.7000
234.6377 46.3496 -7.1000
233.5879 48.1368 -5.5000
234.5660 46.5243 -7.0000
232.4154 49.0882 -5.6000
234.8694 42.6964 -5.5000
234.9596 44.7195 -7.9000
234.9363 44.4012 -7.6000
233.6854 48.3786 -8.4000
234.5110 46.6794 -7.0000
235.0525 41.2136 -5.5000
235.0027 43.2964 -8.2000
234.7733 44.4218 -5.5000
234.4400 46.8700 -6.9000
234.8327 46.0677 -8.2000
234.8264 46.3109 -8.6000
233.2653 48.5276 -6.0000
235.0576 41.7553 -6.9000
233.3710 48.6284 -8.0000
233.2004 48.7543 -7.9000
235.1124 42.5508 -8.2000
235.0134 42.9793 -7.7000
232.2940 49.7600 -12.4000
235.2286 45.9596 -12.4000
235.2045 46.1353 -12.4000
235.1787 46.3139 -12.4000
235.1516 46.4765 -12.4000
235.2450 45.7785 -12.4000
234.1367 48.3774 -12.3000
235.5895 41.1460 -12.4000
235.0996 46.6774 -12.2000
235.2591 45.6004 -12.4000
235.6114 41.3427 -12.2000
235.0461 46.8430 -12.3000
233.9629 48.5312 -12.4000
234.2742 48.2096 -12.3000
235.2703 45.4205 -12.4000
235.6010 41.5359 -12.3000
234.3922 48.0430 -12.2000
235.2782 45.2420 -12.4000
233.7877 48.6678 -12.4000
234.9694 47.0280 -12.2000
235.2846 45.0607 -12.4000
234.4973 47.8759 -12.2000
235.5571 41.7189 -12.2000
235.2864 44.8824 -12.4000
235.2829 44.7024 -12.4000
235.2799 44.3484 -12.4000
235.2818 44.5253 -12.4000
233.6070 48.7991 -12.4000
234.8866 47.2043 -12.2000
235.2796 44.1681 -12.3000
234.5914 47.7138 -12.2000
235.2810 43.9885 -12.3000
235.4951 40.9559 -12.4000
234.7931 47.3767 -12.2000
235.5232 41.8621 -12.2000
235.2933 43.4649 -12.3000
235.2821 43.8145 -12.3000
233.4203 48.9290 -12.4000
235.4525 40.8387 -12.6000
235.3423 43.2384 -12.8000
235.2877 43.6335 -12.3000
235.3592 43.0595 -12.8000
234.6888 47.5430 -12.2000
235.4921 42.1892 -12.8000
235.4613 42.3549 -12.8000
235.3804 42.8904 -12.8000
235.4322 42.5305 -12.8000
235.4042 42.7059 -12.8000
233.2317 49.0576 -12.4000
235.3693 40.6418 -12.5000
235.3073 40.4540 -12.5000
233.0493 49.1810 -12.4000
235.5054 42.0198 -12.5000
236.1525 40.7891 -18.6000
235.9566 40.6584 -18.3000
235.9529 41.0665 -16.5000
235.6649 40.5576 -17.2000
235.8724 40.8854 -16.5000
235.5887 40.4338 -17.9000
235.7652 40.7285 -16.7000
236.0798 41.2698 -17.8000
232.5269 49.8560 -18.2000
236.0572 40.9205 -17.6000
235.5371 46.4915 -17.3000
235.5031 46.6510 -17.2000
235.4385 46.8560 -17.1000
235.3563 47.0671 -17.2000
236.1711 41.0925 -18.3000
235.2782 47.2254 -17.2000
236.0156 41.4467 -17.8000
235.6225 43.9560 -17.5000
235.5615 46.3078 -17.3000
235.6199 44.1349 -17.5000
235.6262 43.7815 -17.5000
235.6310 43.6026 -17.6000
235.0915 47.6150 -17.8000
235.6418 43.4213 -17.6000
235.6217 44.3156 -17.5000
235.1882 47.3830 -17.2000
235.8338 40.5751 -18.3000
235.6219 44.4937 -17.5000
235.6494 43.2422 -17.6000
235.6220 44.6724 -17.5000
235.6231 44.8499 -17.5000
234.9965 47.7796 -17.8000
235.6699 43.0557 -17.7000
235.6896 42.8732 -17.6000
235.5773 46.1232 -17.3000
234.5604 48.4072 -17.3000
235.7130 42.6952 -17.7000
235.6272 45.0310 -17.6000
235.7367 42.5155 -17.6000
234.6917 48.2760 -17.8000
234.8990 47.9497 -17.8000
235.6270 45.2122 -17.6000
235.6234 45.3864 -17.6000
235.6232 45.5688 -17.6000
235.5917 45.9481 -17.3000
235.7675 42.3480 -17.7000
235.6171 45.7432 -17.6000
234.8024 48.1079 -17.8000
235.8135 42.1596 -17.8000
234.4200 48.5529 -17.6000
235.9602 41.6239 -17.9000
235.8126 42.0286 -17.3000
235.9023 41.8029 -17.9000
236.2312 40.9410 -18.8000
234.2536 48.6820 -17.7000
235.9835 40.7969 -17.6000
236.0616 40.2361 -22.9000
236.3158 40.3192 -23.5000
236.4063 40.5359 -22.3000
236.2243 40.1685 -24.1000
235.9313 40.3219 -21.6000
236.0857 40.3890 -21.7000
235.7218 47.2027 -22.3000
235.8047 47.0216 -22.4000
235.6208 47.3734 -22.3000
235.8579 46.8415 -22.4000
236.5309 40.7047 -22.7000
235.5156 47.5398 -22.3000
232.7034 49.9539 -22.6000
235.4095 47.7032 -22.3000
235.9016 46.6608 -22.6000
234.9680 48.3942 -22.3000
235.3189 47.8432 -22.3000
236.2799 40.4513 -22.2000
235.1815 48.1420 -22.8000
234.8278 48.5310 -22.2000
235.2336 48.0057 -22.5000
236.4856 40.9887 -22.4000
235.9199 46.4831 -22.6000
236.5441 40.8343 -22.7000
233.2472 49.5405 -22.4000
234.6478 48.6837 -22.5000
236.4400 40.4100 -23.6000
235.9281 46.3229 -22.7000
233.4432 49.4126 -22.6000
236.3790 41.1624 -22.4000
233.0620 49.6683 -22.4000
235.9324 46.1487 -22.7000
233.6376 49.2894 -22.5000
234.4547 48.8113 -22.6000
232.8796 49.8009 -22.4000
235.0905 48.2640 -22.6000
235.9324 45.9699 -22.8000
236.2931 41.3257 -22.3000
234.2554 48.9322 -22.6000
233.8374 49.1687 -22.4000
236.5741 40.5573 -23.8000
235.9386 47.6026 -27.4000
236.2403 46.8554 -27.3000
236.0434 47.4370 -27.3000
235.8335 47.7570 -27.4000
236.2036 47.0560 -27.3000
235.6177 48.0718 -27.4000
235.7220 47.9159 -27.4000
236.1379 47.2354 -27.2000
236.2507 46.6670 -27.3000
235.5156 48.2302 -27.4000
236.4849 40.0482 -28.0000
236.2439 46.5030 -27.3000
235.3751 48.4116 -27.3000
236.2137 46.3197 -27.4000
235.2675 48.5335 -27.4000
236.5508 40.1543 -27.4000
232.9238 50.0703 -27.7000
232.7857 50.1905 -27.5000
236.7013 40.3276 -27.3000
233.0813 49.9128 -27.5000
236.9593 40.6312 -32.3000
236.1824 47.9780 -32.8000
233.0939 50.3174 -32.3000
236.0776 48.1209 -32.7000
236.2790 47.8250 -32.7000
236.5912 41.6557 -32.6000
236.6290 41.4750 -32.9000
236.5724 41.8342 -32.5000
236.5559 42.0123 -32.5000
236.9503 40.8017 -32.7000
235.8012 48.4076 -32.3000
236.5407 42.1908 -32.5000
236.3674 47.6838 -32.7000
233.2029 50.1852 -32.3000
236.7003 39.9644 -33.0000
236.5257 42.3693 -32.5000
233.3420 50.0349 -32.2000
236.4885 47.3790 -32.2000
235.6568 48.5431 -32.3000
236.5110 42.5477 -32.4000
235.9628 48.2587 -32.6000
236.6070 47.0119 -32.3000
233.5032 49.8951 -32.3000
236.5563 47.1976 -32.2000
236.4964 42.7260 -32.4000
233.6641 49.7942 -32.7000
236.4488 47.5193 -32.6000
233.8564 49.6496 -32.7000
234.0485 49.5254 -32.7000
236.4829 42.9044 -32.4000
235.4937 48.6801 -32.3000
236.6379 46.8369 -32.7000
236.4700 43.0829 -32.4000
236.4567 43.2616 -32.4000
235.2952 48.8254 -32.4000
234.2459 49.4006 -32.5000
236.4436 43.4368 -32.4000
236.4367 43.6172 -32.4000
234.4526 49.2865 -32.4000
236.4303 43.7942 -32.3000
235.0847 48.9449 -32.4000
236.4070 44.6872 -32.2000
236.4347 44.1617 -32.7000
236.4303 44.5199 -32.7000
236.4376 43.9825 -32.7000
234.6659 49.1731 -32.4000
234.8780 49.0601 -32.4000
236.4153 44.3288 -32.3000
236.6271 46.6714 -32.8000
236.4098 44.8682 -32.3000
$EndNodes
$Elements
1 1388 1 1388
2 1 2 1388
1 2 68 520 
2 492 66 531 
3 30 29 480 
4 15 1 510 
5 494 445 506 
6 67 66 492 
7 481 444 516 
8 502 481 516 
9 471 518 537 
10 479 26 527 
11 70 71 17 
12 453 449 485 
13 70 17 16 
14 456 514 529 
15 449 494 506 
16 512 467 521 
17 480 29 548 
18 68 67 492 
19 448 512 521 
20 518 451 537 
21 472 498 521 
22 477 60 500 
23 514 463 529 
24 60 477 543 
25 498 448 521 
26 473 63 483 
27 30 480 484 
28 476 450 541 
29 458 488 504 
30 450 476 508 
31 458 487 488 
32 70 16 69 
33 26 466 527 
34 69 16 15 
35 24 23 521 
36 29 482 548 
37 444 481 544 
38 467 24 521 
39 451 502 516 
40 63 62 483 
41 68 123 520 
42 54 449 453 
43 479 527 547 
44 445 494 515 
45 501 450 508 
46 453 485 493 
47 485 449 506 
48 459 487 526 
49 488 96 504 
50 454 484 538 
51 482 82 548 
52 462 501 508 
53 473 483 519 
54 491 453 493 
55 497 528 530 
56 460 33 496 
57 487 41 526 
58 502 451 518 
59 528 442 530 
60 475 92 533 
61 463 500 529 
62 452 499 507 
63 484 454 503 
64 82 482 517 
65 58 456 529 
66 468 51 490 
67 38 475 511 
68 491 452 507 
69 464 492 531 
70 455 90 534 
71 486 476 541 
72 452 491 493 
73 51 50 490 
74 495 87 513 
75 21 20 516 
76 511 475 533 
77 466 467 512 
78 475 38 539 
79 37 36 455 
80 90 455 523 
81 33 32 496 
82 78 79 512 
83 31 30 484 
84 476 46 508 
85 29 28 482 
86 34 460 461 
87 481 76 498 
88 495 460 496 
89 42 41 487 
90 91 92 475 
91 23 22 472 
92 40 39 474 
93 483 118 519 
94 64 63 473 
95 500 463 535 
96 444 21 516 
97 446 476 486 
98 93 94 509 
99 20 19 451 
100 484 480 538 
101 446 47 476 
102 56 55 491 
103 43 42 458 
104 83 84 480 
105 58 57 456 
106 76 77 498 
107 50 447 490 
108 34 33 460 
109 54 53 449 
110 45 44 462 
111 50 49 447 
112 52 51 468 
113 75 76 481 
114 47 46 476 
115 48 47 446 
116 62 478 483 
117 448 78 512 
118 18 489 537 
119 32 31 503 
120 62 61 478 
121 65 64 505 
122 120 121 464 
123 121 122 492 
124 77 78 448 
125 85 86 454 
126 22 444 472 
127 104 105 443 
128 102 103 442 
129 94 95 459 
130 107 108 506 
131 109 110 493 
132 110 111 452 
133 111 112 499 
134 106 107 445 
135 108 109 485 
136 113 114 463 
137 464 121 492 
138 110 452 493 
139 22 21 444 
140 104 443 470 
141 106 445 469 
142 96 97 504 
143 115 116 477 
144 72 73 471 
145 99 100 450 
146 98 99 501 
147 97 98 457 
148 447 49 497 
149 49 48 497 
150 74 75 502 
151 485 109 493 
152 457 98 501 
153 72 471 489 
154 45 462 508 
155 35 34 461 
156 26 25 466 
157 77 448 498 
158 27 26 479 
159 43 458 522 
160 48 446 497 
161 99 450 501 
162 455 36 465 
163 457 462 522 
164 462 457 501 
165 31 484 503 
166 75 481 502 
167 517 479 547 
168 512 79 527 
169 46 45 508 
170 53 52 494 
171 118 483 546 
172 466 25 467 
173 87 88 513 
174 60 59 500 
175 97 457 504 
176 108 485 506 
177 462 44 522 
178 94 459 509 
179 103 104 470 
180 101 486 541 
181 458 42 487 
182 86 87 495 
183 489 471 537 
184 452 111 499 
185 52 468 494 
186 509 459 526 
187 445 107 506 
188 449 53 494 
189 17 71 489 
190 61 60 543 
191 105 106 469 
192 69 15 510 
193 513 88 524 
194 56 491 507 
195 536 443 540 
196 18 17 489 
197 23 472 521 
198 455 465 523 
199 55 453 491 
200 120 464 525 
201 460 495 513 
202 82 83 548 
203 35 461 465 
204 490 536 540 
205 454 86 495 
206 81 517 547 
207 57 56 507 
208 464 505 525 
209 499 456 507 
210 44 43 522 
211 480 84 538 
212 85 454 538 
213 64 473 505 
214 88 89 524 
215 443 105 469 
216 499 112 514 
217 90 91 534 
218 113 463 514 
219 456 57 507 
220 456 499 514 
221 454 495 496 
222 36 35 465 
223 39 38 511 
224 500 59 529 
225 442 103 470 
226 100 101 541 
227 497 446 528 
228 498 472 544 
229 102 442 542 
230 504 457 522 
231 482 28 532 
232 115 477 535 
233 112 113 514 
234 458 504 522 
235 71 72 489 
236 20 451 516 
237 451 19 537 
238 466 512 527 
239 486 101 542 
240 477 500 535 
241 25 24 467 
242 474 39 511 
243 55 54 453 
244 73 74 518 
245 461 513 524 
246 487 459 488 
247 461 460 513 
248 463 114 535 
249 471 73 518 
250 74 502 518 
251 79 80 527 
252 517 482 532 
253 40 474 526 
254 81 82 517 
255 474 509 526 
256 469 445 515 
257 468 490 540 
258 479 517 532 
259 446 486 528 
260 65 505 531 
261 117 118 546 
262 119 120 525 
263 473 519 525 
264 37 455 539 
265 66 65 531 
266 93 509 533 
267 116 117 545 
268 490 447 536 
269 442 528 542 
270 28 27 532 
271 496 32 503 
272 92 93 533 
273 91 475 534 
274 114 115 535 
275 477 116 545 
276 38 37 539 
277 59 58 529 
278 465 461 524 
279 459 95 488 
280 470 443 536 
281 27 479 532 
282 19 18 537 
283 118 119 519 
284 472 444 544 
285 447 497 530 
286 478 61 543 
287 545 117 546 
288 41 40 526 
289 523 465 524 
290 505 464 531 
291 505 473 525 
292 89 90 523 
293 474 511 533 
294 84 85 538 
295 443 469 540 
296 80 81 547 
297 101 102 542 
298 481 498 544 
299 450 100 541 
300 95 96 488 
301 83 480 548 
302 483 478 546 
303 455 534 539 
304 89 523 524 
305 527 80 547 
306 428 3 510 
307 429 2 520 
308 494 468 515 
309 442 470 530 
310 509 474 533 
311 519 119 525 
312 454 496 503 
313 478 545 546 
314 530 470 536 
315 469 515 540 
316 528 486 542 
317 447 530 536 
318 543 477 545 
319 534 475 539 
320 478 543 545 
321 515 468 540 
322 3 69 510 
323 123 4 520 
324 1 428 510 
325 4 429 520 
326 123 68 492 
327 122 123 492 
328 176 121 120 
329 176 177 121 
330 3 430 599 
331 430 5 599 
332 123 178 179 
333 177 122 121 
334 177 178 122 
335 167 565 570 
336 178 123 122 
337 166 167 570 
338 559 129 564 
339 166 570 579 
340 165 166 579 
341 584 85 588 
342 129 130 564 
343 168 562 565 
344 165 579 591 
345 164 165 591 
346 167 168 565 
347 140 584 588 
348 577 162 582 
349 162 163 582 
350 568 161 577 
351 79 78 592 
352 169 555 562 
353 79 592 593 
354 582 164 591 
355 564 131 571 
356 130 131 564 
357 163 164 582 
358 161 162 577 
359 560 160 568 
360 168 169 562 
361 571 132 583 
362 131 132 571 
363 160 161 568 
364 80 79 593 
365 80 593 595 
366 125 70 598 
367 557 159 560 
368 553 158 557 
369 159 160 560 
370 81 595 596 
371 81 80 595 
372 556 128 559 
373 158 159 557 
374 594 82 596 
375 82 81 596 
376 127 556 581 
377 590 83 594 
378 83 82 594 
379 128 129 559 
380 588 84 590 
381 70 125 587 
382 555 170 561 
383 550 155 551 
384 155 156 551 
385 84 83 590 
386 551 156 552 
387 156 157 552 
388 552 157 553 
389 157 158 553 
390 154 155 550 
391 169 170 555 
392 154 550 554 
393 85 84 588 
394 176 120 600 
395 556 72 581 
396 153 154 554 
397 153 554 558 
398 73 556 559 
399 123 179 549 
400 152 153 558 
401 140 141 584 
402 152 558 563 
403 584 141 589 
404 141 142 589 
405 74 559 564 
406 126 127 581 
407 151 152 563 
408 103 553 557 
409 132 133 601 
410 114 555 561 
411 151 563 566 
412 142 143 585 
413 150 151 566 
414 170 171 561 
415 100 99 550 
416 561 171 567 
417 149 569 572 
418 143 144 580 
419 101 100 551 
420 144 145 578 
421 100 550 551 
422 550 99 554 
423 555 113 562 
424 101 551 552 
425 142 585 589 
426 102 101 552 
427 124 69 599 
428 144 578 580 
429 150 566 569 
430 143 580 585 
431 102 552 553 
432 145 146 574 
433 99 98 554 
434 103 102 553 
435 78 77 601 
436 149 150 569 
437 114 113 555 
438 104 557 560 
439 146 147 575 
440 127 128 556 
441 145 574 578 
442 554 98 558 
443 574 146 575 
444 562 112 565 
445 567 172 576 
446 147 148 573 
447 558 97 563 
448 98 97 558 
449 148 149 572 
450 147 573 575 
451 105 104 560 
452 115 561 567 
453 104 103 557 
454 171 172 567 
455 148 572 573 
456 115 114 561 
457 583 132 601 
458 113 112 562 
459 73 72 556 
460 106 568 577 
461 116 567 576 
462 75 74 564 
463 565 111 570 
464 105 560 568 
465 97 96 563 
466 569 94 572 
467 124 125 598 
468 563 96 566 
469 75 564 571 
470 74 73 559 
471 116 115 567 
472 96 95 566 
473 172 173 576 
474 112 111 565 
475 107 577 582 
476 70 69 598 
477 71 70 587 
478 106 105 568 
479 566 95 569 
480 576 173 586 
481 95 94 569 
482 111 110 570 
483 173 174 586 
484 76 571 583 
485 94 93 572 
486 76 75 571 
487 93 92 573 
488 139 588 590 
489 92 91 575 
490 117 116 576 
491 174 175 597 
492 91 90 574 
493 108 582 591 
494 107 106 577 
495 572 93 573 
496 570 110 579 
497 72 71 581 
498 573 92 575 
499 175 176 600 
500 90 89 578 
501 91 574 575 
502 117 576 586 
503 586 174 597 
504 137 594 596 
505 592 78 601 
506 110 109 579 
507 578 89 580 
508 593 135 595 
509 77 76 583 
510 89 88 580 
511 595 136 596 
512 108 107 582 
513 138 590 594 
514 86 85 584 
515 125 126 587 
516 580 88 585 
517 138 139 590 
518 118 117 586 
519 88 87 585 
520 592 134 593 
521 579 109 591 
522 86 584 589 
523 139 140 588 
524 574 90 578 
525 87 86 589 
526 133 134 592 
527 134 135 593 
528 137 138 594 
529 109 108 591 
530 118 586 597 
531 135 136 595 
532 136 137 596 
533 119 118 597 
534 585 87 589 
535 120 119 600 
536 597 175 600 
537 69 124 598 
538 119 597 600 
539 581 71 587 
540 126 581 587 
541 431 4 549 
542 77 583 601 
543 133 592 601 
544 69 3 599 
545 4 123 549 
546 5 124 599 
547 179 6 549 
548 6 431 549 
549 182 602 603 
550 605 124 607 
551 128 604 609 
552 182 183 602 
553 129 128 609 
554 7 180 607 
555 230 231 171 
556 231 172 171 
557 222 624 627 
558 238 179 178 
559 237 238 178 
560 624 163 627 
561 218 219 614 
562 237 178 177 
563 614 219 615 
564 237 177 236 
565 231 232 172 
566 232 173 172 
567 236 177 176 
568 235 176 175 
569 235 236 176 
570 234 235 175 
571 234 175 174 
572 232 233 173 
573 233 234 174 
574 233 174 173 
575 606 126 608 
576 180 605 607 
577 609 604 616 
578 606 608 657 
579 129 609 618 
580 190 132 654 
581 132 190 653 
582 613 217 614 
583 217 218 614 
584 219 220 615 
585 615 220 617 
586 181 182 603 
587 125 124 605 
588 612 216 613 
589 617 221 627 
590 220 221 617 
591 216 217 613 
592 127 126 606 
593 647 134 650 
594 192 647 650 
595 221 222 627 
596 608 603 657 
597 164 624 633 
598 130 129 618 
599 165 164 633 
600 165 633 642 
601 604 127 606 
602 128 127 604 
603 164 163 624 
604 166 165 642 
605 212 646 648 
606 183 184 602 
607 646 154 648 
608 166 642 649 
609 130 618 652 
610 215 216 612 
611 215 612 620 
612 167 166 649 
613 125 605 608 
614 8 433 610 
615 131 652 654 
616 131 130 652 
617 603 602 657 
618 126 125 608 
619 605 180 628 
620 180 181 628 
621 168 167 641 
622 214 215 620 
623 214 620 636 
624 230 171 656 
625 181 603 628 
626 641 167 649 
627 637 228 651 
628 132 131 654 
629 179 238 610 
630 604 611 616 
631 190 191 653 
632 134 133 650 
633 213 214 636 
634 160 614 615 
635 213 636 646 
636 169 637 651 
637 192 193 647 
638 158 612 613 
639 619 143 622 
640 635 137 638 
641 638 136 640 
642 634 138 635 
643 227 228 637 
644 625 140 630 
645 603 608 628 
646 137 136 638 
647 212 213 646 
648 630 139 634 
649 138 137 635 
650 139 138 634 
651 141 140 625 
652 144 143 619 
653 159 613 614 
654 136 135 640 
655 602 184 655 
656 201 619 622 
657 161 615 617 
658 623 141 625 
659 142 141 623 
660 162 617 627 
661 143 142 622 
662 149 632 639 
663 198 625 630 
664 432 7 607 
665 612 157 620 
666 146 145 626 
667 140 139 630 
668 200 201 622 
669 153 152 645 
670 202 203 621 
671 144 619 621 
672 199 200 623 
673 147 146 629 
674 622 142 623 
675 154 153 648 
676 145 144 621 
677 148 147 631 
678 146 626 629 
679 152 644 645 
680 200 622 623 
681 162 161 617 
682 620 156 636 
683 151 150 643 
684 158 157 612 
685 161 160 615 
686 150 149 639 
687 147 629 631 
688 149 148 632 
689 197 198 630 
690 604 606 611 
691 621 203 626 
692 159 158 613 
693 203 204 626 
694 148 631 632 
695 199 623 625 
696 145 621 626 
697 197 630 634 
698 619 202 621 
699 171 170 656 
700 152 151 644 
701 626 204 629 
702 204 205 629 
703 196 634 635 
704 652 189 654 
705 632 207 639 
706 201 202 619 
707 629 205 631 
708 222 223 624 
709 198 199 625 
710 157 156 620 
711 205 206 631 
712 160 159 614 
713 609 187 618 
714 170 169 651 
715 163 162 627 
716 153 645 648 
717 150 639 643 
718 194 638 640 
719 195 635 638 
720 631 206 632 
721 151 643 644 
722 206 207 632 
723 608 605 628 
724 624 223 633 
725 193 194 640 
726 196 197 634 
727 616 611 655 
728 195 196 635 
729 642 225 649 
730 194 195 638 
731 223 224 633 
732 633 224 642 
733 618 188 652 
734 186 609 616 
735 156 155 636 
736 644 210 645 
737 169 168 637 
738 207 208 639 
739 211 212 648 
740 636 155 646 
741 209 210 644 
742 226 227 641 
743 155 154 646 
744 208 209 643 
745 135 134 647 
746 224 225 642 
747 210 211 645 
748 186 187 609 
749 225 226 649 
750 639 208 643 
751 228 229 651 
752 184 185 655 
753 133 132 653 
754 643 209 644 
755 645 211 648 
756 191 192 650 
757 187 188 618 
758 185 186 616 
759 189 190 654 
760 229 230 656 
761 188 189 652 
762 611 602 655 
763 226 641 649 
764 602 611 657 
765 170 651 656 
766 651 229 656 
767 611 606 657 
768 193 640 647 
769 650 133 653 
770 640 135 647 
771 227 637 641 
772 637 168 641 
773 191 650 653 
774 185 616 655 
775 238 8 610 
776 5 432 124 
777 6 179 610 
778 433 6 610 
779 124 432 607 
780 256 197 196 
781 253 193 252 
782 257 197 256 
783 271 272 212 
784 252 193 192 
785 293 232 231 
786 251 252 192 
787 212 211 271 
788 257 198 197 
789 292 293 231 
790 258 198 257 
791 250 251 191 
792 251 192 191 
793 250 191 190 
794 271 211 270 
795 258 199 198 
796 249 250 190 
797 211 210 270 
798 259 199 258 
799 249 189 248 
800 247 188 187 
801 249 190 189 
802 260 261 201 
803 259 200 199 
804 259 260 200 
805 263 204 203 
806 260 201 200 
807 248 189 188 
808 264 204 263 
809 269 270 210 
810 262 263 203 
811 248 188 247 
812 261 262 202 
813 261 202 201 
814 262 203 202 
815 264 205 204 
816 265 205 264 
817 269 210 209 
818 265 206 205 
819 269 209 268 
820 266 206 265 
821 268 209 208 
822 267 268 208 
823 267 207 266 
824 266 207 206 
825 267 208 207 
826 658 659 663 
827 659 658 661 
828 300 437 670 
829 666 281 669 
830 281 282 669 
831 664 280 666 
832 669 282 671 
833 282 283 671 
834 280 281 666 
835 671 283 674 
836 283 284 674 
837 7 434 180 
838 183 668 681 
839 437 8 670 
840 673 288 677 
841 184 183 681 
842 287 288 673 
843 299 300 670 
844 279 664 665 
845 279 280 664 
846 236 235 682 
847 235 234 686 
848 8 238 670 
849 212 272 694 
850 239 240 659 
851 296 297 682 
852 180 434 662 
853 295 296 686 
854 226 225 693 
855 237 236 688 
856 187 186 695 
857 181 180 662 
858 434 435 662 
859 183 660 668 
860 225 676 693 
861 183 182 660 
862 278 665 667 
863 234 233 690 
864 297 298 688 
865 182 181 663 
866 677 289 683 
867 278 279 665 
868 284 285 678 
869 664 219 665 
870 186 185 687 
871 435 436 658 
872 9 239 661 
873 182 663 675 
874 227 673 677 
875 294 295 690 
876 246 247 695 
877 665 218 667 
878 288 289 677 
879 238 237 692 
880 436 9 661 
881 242 243 668 
882 239 659 661 
883 220 664 666 
884 668 660 698 
885 286 287 693 
886 219 218 665 
887 245 246 687 
888 220 219 664 
889 689 213 694 
890 214 213 689 
891 225 224 678 
892 228 677 683 
893 298 299 692 
894 213 212 694 
895 663 659 675 
896 674 284 678 
897 218 217 667 
898 277 278 667 
899 217 216 672 
900 181 662 663 
901 215 214 685 
902 240 241 684 
903 221 666 669 
904 221 220 666 
905 658 436 661 
906 216 215 680 
907 435 658 662 
908 684 241 698 
909 233 232 697 
910 685 214 689 
911 222 221 669 
912 222 669 671 
913 667 217 672 
914 238 299 670 
915 662 658 663 
916 672 216 680 
917 223 222 671 
918 293 294 697 
919 223 671 674 
920 287 673 693 
921 185 184 679 
922 277 667 672 
923 680 215 685 
924 227 226 673 
925 224 223 674 
926 276 277 672 
927 285 286 676 
928 659 240 684 
929 676 225 678 
930 247 187 695 
931 292 231 696 
932 243 244 681 
933 275 276 680 
934 244 245 679 
935 276 672 680 
936 683 290 691 
937 289 290 683 
938 185 245 687 
939 274 275 685 
940 233 294 690 
941 298 237 688 
942 660 684 698 
943 229 683 691 
944 297 236 682 
945 299 238 692 
946 234 295 686 
947 229 228 683 
948 228 227 677 
949 245 185 679 
950 232 293 697 
951 296 235 686 
952 235 296 682 
953 230 229 691 
954 273 689 694 
955 273 274 689 
956 231 230 696 
957 230 691 696 
958 691 291 696 
959 290 291 691 
960 236 297 688 
961 241 242 698 
962 291 292 696 
963 272 273 694 
964 246 186 687 
965 275 680 685 
966 668 243 681 
967 295 234 690 
968 660 182 675 
969 237 298 692 
970 274 685 689 
971 294 233 697 
972 186 246 695 
973 242 668 698 
974 224 674 678 
975 285 676 678 
976 679 184 681 
977 244 679 681 
978 673 226 693 
979 676 286 693 
980 660 675 684 
981 675 659 684 
982 437 300 10 
983 253 194 193 
984 254 195 194 
985 253 254 194 
986 255 196 195 
987 255 195 254 
988 256 196 255 
989 321 258 320 
990 323 261 260 
991 319 256 318 
992 319 257 256 
993 324 261 323 
994 289 288 352 
995 318 256 255 
996 320 257 319 
997 318 255 317 
998 324 262 261 
999 352 288 351 
1000 320 258 257 
1001 317 255 254 
1002 327 265 264 
1003 324 325 262 
1004 328 265 327 
1005 328 266 265 
1006 317 254 316 
1007 330 331 268 
1008 331 269 268 
1009 327 264 326 
1010 325 263 262 
1011 361 297 360 
1012 330 268 267 
1013 298 297 361 
1014 329 330 267 
1015 307 244 306 
1016 329 266 328 
1017 326 264 263 
1018 326 263 325 
1019 329 267 266 
1020 316 254 253 
1021 331 332 269 
1022 12 439 716 
1023 316 253 315 
1024 332 270 269 
1025 353 289 352 
1026 290 289 353 
1027 315 253 252 
1028 360 296 359 
1029 336 273 335 
1030 274 273 336 
1031 297 296 360 
1032 315 252 314 
1033 703 342 706 
1034 306 244 243 
1035 341 342 703 
1036 354 290 353 
1037 333 270 332 
1038 273 272 335 
1039 272 334 335 
1040 314 252 251 
1041 333 271 270 
1042 291 290 354 
1043 314 251 313 
1044 333 334 271 
1045 272 271 334 
1046 355 291 354 
1047 308 246 245 
1048 296 295 359 
1049 700 340 703 
1050 313 251 250 
1051 292 291 355 
1052 359 295 358 
1053 309 246 308 
1054 340 341 703 
1055 304 242 241 
1056 358 294 357 
1057 239 438 709 
1058 295 294 358 
1059 304 241 303 
1060 313 250 312 
1061 356 292 355 
1062 343 701 706 
1063 293 292 356 
1064 357 293 356 
1065 294 293 357 
1066 305 243 242 
1067 363 12 716 
1068 342 343 706 
1069 312 250 249 
1070 306 243 305 
1071 439 10 716 
1072 305 242 304 
1073 312 249 311 
1074 11 301 709 
1075 10 300 716 
1076 339 700 707 
1077 339 340 700 
1078 310 247 309 
1079 309 247 246 
1080 311 249 248 
1081 311 248 310 
1082 310 248 247 
1083 287 711 713 
1084 711 350 713 
1085 344 699 701 
1086 343 344 701 
1087 351 288 713 
1088 347 348 704 
1089 346 347 705 
1090 344 345 699 
1091 347 704 705 
1092 699 345 702 
1093 345 346 702 
1094 702 346 705 
1095 704 348 708 
1096 701 280 706 
1097 338 339 707 
1098 240 302 717 
1099 302 240 714 
1100 279 703 706 
1101 338 707 710 
1102 278 700 703 
1103 348 349 708 
1104 700 277 707 
1105 699 281 701 
1106 708 349 711 
1107 282 281 699 
1108 278 277 700 
1109 282 699 702 
1110 281 280 701 
1111 283 282 702 
1112 283 702 705 
1113 285 284 704 
1114 279 278 703 
1115 277 276 707 
1116 284 283 705 
1117 286 285 708 
1118 704 284 705 
1119 280 279 706 
1120 349 350 711 
1121 707 276 710 
1122 285 704 708 
1123 715 299 718 
1124 362 715 718 
1125 710 275 712 
1126 286 708 711 
1127 301 302 714 
1128 337 710 712 
1129 276 275 710 
1130 337 338 710 
1131 438 11 709 
1132 298 361 718 
1133 300 299 715 
1134 239 709 714 
1135 287 286 711 
1136 302 303 717 
1137 350 351 713 
1138 274 336 712 
1139 241 240 717 
1140 288 287 713 
1141 336 337 712 
1142 240 239 714 
1143 361 362 718 
1144 275 274 712 
1145 362 363 715 
1146 299 298 718 
1147 303 241 717 
1148 709 301 714 
1149 300 715 716 
1150 715 363 716 
1151 9 438 239 
1152 307 245 244 
1153 308 245 307 
1154 321 259 258 
1155 322 260 259 
1156 322 259 321 
1157 323 260 322 
1158 315 314 734 
1159 398 335 397 
1160 335 334 397 
1161 396 397 334 
1162 336 335 398 
1163 396 334 333 
1164 336 398 399 
1165 377 378 734 
1166 396 333 395 
1167 13 364 733 
1168 392 330 329 
1169 395 333 332 
1170 392 393 330 
1171 393 331 330 
1172 394 332 331 
1173 393 394 331 
1174 394 395 332 
1175 316 315 738 
1176 378 379 738 
1177 399 400 337 
1178 365 302 364 
1179 337 336 399 
1180 346 345 723 
1181 720 346 723 
1182 347 346 722 
1183 346 720 722 
1184 364 302 301 
1185 401 338 400 
1186 317 316 743 
1187 400 338 337 
1188 301 440 733 
1189 379 380 743 
1190 427 721 732 
1191 441 427 14 
1192 723 345 731 
1193 345 344 731 
1194 426 427 732 
1195 318 317 748 
1196 380 381 748 
1197 319 318 751 
1198 381 382 751 
1199 425 426 735 
1200 426 732 735 
1201 320 319 752 
1202 427 441 721 
1203 382 383 752 
1204 405 736 742 
1205 348 347 739 
1206 338 401 767 
1207 321 320 755 
1208 369 306 728 
1209 729 413 737 
1210 441 12 721 
1211 12 363 721 
1212 412 413 729 
1213 405 406 736 
1214 383 384 755 
1215 322 321 756 
1216 347 722 739 
1217 424 425 741 
1218 328 327 760 
1219 344 343 745 
1220 425 735 741 
1221 740 404 742 
1222 389 390 762 
1223 384 385 756 
1224 326 325 766 
1225 387 388 761 
1226 323 322 758 
1227 737 414 749 
1228 327 326 762 
1229 386 387 763 
1230 390 391 760 
1231 373 310 725 
1232 731 344 745 
1233 404 405 742 
1234 388 389 766 
1235 413 414 737 
1236 385 386 758 
1237 325 324 761 
1238 368 305 719 
1239 324 323 763 
1240 364 301 733 
1241 304 367 719 
1242 744 359 746 
1243 411 412 739 
1244 409 410 720 
1245 360 359 744 
1246 329 328 768 
1247 339 338 767 
1248 410 411 722 
1249 408 409 723 
1250 406 407 745 
1251 391 392 768 
1252 341 740 742 
1253 409 720 723 
1254 374 311 724 
1255 310 373 724 
1256 753 416 759 
1257 352 753 759 
1258 376 313 727 
1259 749 415 753 
1260 746 358 747 
1261 736 342 742 
1262 309 372 725 
1263 311 374 726 
1264 375 312 726 
1265 349 729 737 
1266 720 410 722 
1267 312 375 727 
1268 377 314 730 
1269 363 362 732 
1270 305 368 728 
1271 349 348 729 
1272 350 737 749 
1273 340 339 750 
1274 403 404 740 
1275 407 408 731 
1276 313 376 730 
1277 408 723 731 
1278 378 315 734 
1279 414 415 749 
1280 422 746 747 
1281 351 749 753 
1282 359 358 746 
1283 440 13 733 
1284 314 377 734 
1285 379 316 738 
1286 362 361 735 
1287 423 744 746 
1288 343 342 736 
1289 380 317 743 
1290 350 349 737 
1291 423 424 744 
1292 315 378 738 
1293 361 360 741 
1294 422 423 746 
1295 341 340 740 
1296 381 318 748 
1297 403 740 750 
1298 342 341 742 
1299 358 357 747 
1300 759 417 765 
1301 412 729 739 
1302 316 379 743 
1303 382 319 751 
1304 747 357 754 
1305 735 361 741 
1306 351 350 749 
1307 383 320 752 
1308 353 759 765 
1309 420 421 754 
1310 385 322 756 
1311 317 380 748 
1312 384 321 755 
1313 391 328 760 
1314 740 340 750 
1315 326 389 762 
1316 419 757 764 
1317 392 329 768 
1318 389 326 766 
1319 419 420 757 
1320 418 419 764 
1321 421 422 747 
1322 324 387 761 
1323 386 323 758 
1324 421 747 754 
1325 323 386 763 
1326 417 418 765 
1327 416 417 759 
1328 318 381 751 
1329 352 351 753 
1330 418 764 765 
1331 732 362 735 
1332 402 403 750 
1333 415 416 753 
1334 357 356 754 
1335 319 382 752 
1336 757 355 764 
1337 320 383 755 
1338 356 355 757 
1339 353 352 759 
1340 420 754 757 
1341 355 354 764 
1342 354 353 765 
1343 401 402 767 
1344 388 325 761 
1345 325 388 766 
1346 387 324 763 
1347 321 384 756 
1348 721 363 732 
1349 322 385 758 
1350 390 327 762 
1351 327 390 760 
1352 736 406 745 
1353 764 354 765 
1354 750 339 767 
1355 328 391 768 
1356 754 356 757 
1357 722 411 739 
1358 407 731 745 
1359 729 348 739 
1360 402 750 767 
1361 424 741 744 
1362 741 360 744 
1363 343 736 745 
1364 305 304 719 
1365 306 305 728 
1366 310 309 725 
1367 311 310 724 
1368 312 311 726 
1369 313 312 727 
1370 314 313 730 
1371 367 368 719 
1372 368 369 728 
1373 372 373 725 
1374 373 374 724 
1375 374 375 726 
1376 375 376 727 
1377 376 377 730 
1378 11 440 301 
1379 365 303 302 
1380 366 304 303 
1381 366 303 365 
1382 367 304 366 
1383 370 307 306 
1384 370 306 369 
1385 371 308 307 
1386 371 307 370 
1387 372 309 308 
1388 372 308 371 
$EndElements
