$MeshFormat
4.1 0 8
$EndMeshFormat
$Entities
0 0 1 0
1 232.06 39.872 -31.5 237.035 50.558 0 0 0 
$EndEntities
$Nodes
1 768 1 768
2 1 0 768
1
2
3
4
5
6
7
8
9
10
11
12
13
14
15
16
17
18
19
20
21
22
23
24
25
26
27
28
29
30
31
32
33
34
35
36
37
38
39
40
41
42
43
44
45
46
47
48
49
50
51
52
53
54
55
56
57
58
59
60
61
62
63
64
65
66
67
68
69
70
71
72
73
74
75
76
77
78
79
80
81
82
83
84
85
86
87
88
89
90
91
92
93
94
95
96
97
98
99
100
101
102
103
104
105
106
107
108
109
110
111
112
113
114
115
116
117
118
119
120
121
122
123
124
125
126
127
128
129
130
131
132
133
134
135
136
137
138
139
140
141
142
143
144
145
146
147
148
149
150
151
152
153
154
155
156
157
158
159
160
161
162
163
164
165
166
167
168
169
170
171
172
173
174
175
176
177
178
179
180
181
182
183
184
185
186
187
188
189
190
191
192
193
194
195
196
197
198
199
200
201
202
203
204
205
206
207
208
209
210
211
212
213
214
215
216
217
218
219
220
221
222
223
224
225
226
227
228
229
230
231
232
233
234
235
236
237
238
239
240
241
242
243
244
245
246
247
248
249
250
251
252
253
254
255
256
257
258
259
260
261
262
263
264
265
266
267
268
269
270
271
272
273
274
275
276
277
278
279
280
281
282
283
284
285
286
287
288
289
290
291
292
293
294
295
296
297
298
299
300
301
302
303
304
305
306
307
308
309
310
311
312
313
314
315
316
317
318
319
320
321
322
323
324
325
326
327
328
329
330
331
332
333
334
335
336
337
338
339
340
341
342
343
344
345
346
347
348
349
350
351
352
353
354
355
356
357
358
359
360
361
362
363
364
365
366
367
368
369
370
371
372
373
374
375
376
377
378
379
380
381
382
383
384
385
386
387
388
389
390
391
392
393
394
395
396
397
398
399
400
401
402
403
404
405
406
407
408
409
410
411
412
413
414
415
416
417
418
419
420
421
422
423
424
425
426
427
428
429
430
431
432
433
434
435
436
437
438
439
440
441
442
443
444
445
446
447
448
449
450
451
452
453
454
455
456
457
458
459
460
461
462
463
464
465
466
467
468
469
470
471
472
473
474
475
476
477
478
479
480
481
482
483
484
485
486
487
488
489
490
491
492
493
494
495
496
497
498
499
500
501
502
503
504
505
506
507
508
509
510
511
512
513
514
515
516
517
518
519
520
521
522
523
524
525
526
527
528
529
530
531
532
533
534
535
536
537
538
539
540
541
542
543
544
545
546
547
548
549
550
551
552
553
554
555
556
557
558
559
560
561
562
563
564
565
566
567
568
569
570
571
572
573
574
575
576
577
578
579
580
581
582
583
584
585
586
587
588
589
590
591
592
593
594
595
596
597
598
599
600
601
602
603
604
605
606
607
608
609
610
611
612
613
614
615
616
617
618
619
620
621
622
623
624
625
626
627
628
629
630
631
632
633
634
635
636
637
638
639
640
641
642
643
644
645
646
647
648
649
650
651
652
653
654
655
656
657
658
659
660
661
662
663
664
665
666
667
668
669
670
671
672
673
674
675
676
677
678
679
680
681
682
683
684
685
686
687
688
689
690
691
692
693
694
695
696
697
698
699
700
701
702
703
704
705
706
707
708
709
710
711
712
713
714
715
716
717
718
719
720
721
722
723
724
725
726
727
728
729
730
731
732
733
734
735
736
737
738
739
740
741
742
743
744
745
746
747
748
749
750
751
752
753
754
755
756
757
758
759
760
761
762
763
764
765
766
767
768
235.0 40.375 0.0
232.06 49.636 0.0
235.2 40.393 -6.5
232.184 49.75 -6.5
235.362 40.361 -11.5
232.301 49.864 -11.5
235.57999999999998 40.297 -16.5
232.52100000000002 49.954 -16.5
236.227 40.028 -21.5
232.56 50.217 -21.5
236.49200000000002 39.909 -26.5
232.836 50.349 -26.5
236.738 39.872 -31.5
233.159 50.558 -31.5
235.01600000000002 40.553 0.0
235.055 40.729 0.0
235.058 40.907 0.0
234.951 41.067 0.0
234.872 41.236 0.0
234.805 41.409 0.0
234.72 41.577 0.0
234.708 41.752 0.0
234.699 41.93 0.0
234.66899999999998 42.108 0.0
234.709 42.284 0.0
234.80700000000002 42.44 0.0
234.725 42.6 0.0
234.716 42.779 0.0
234.711 42.959 0.0
234.663 43.131 0.0
234.588 43.302 0.0
234.519 43.473 0.0
234.52100000000002 43.652 0.0
234.535 43.831 0.0
234.575 44.008 0.0
234.635 44.171 0.0
234.628 44.35 0.0
234.628 44.53 0.0
234.588 44.699 0.0
234.563 44.873 0.0
234.566 45.053 0.0
234.537 45.231 0.0
234.498 45.408 0.0
234.451 45.585 0.0
234.399 45.761 0.0
234.348 45.937 0.0
234.289 46.112 0.0
234.23000000000002 46.287 0.0
234.17700000000002 46.463 0.0
234.125 46.639 0.0
234.061 46.813 0.0
233.997 46.987 0.0
233.957 47.165 0.0
233.918 47.343 0.0
233.804 47.505 0.0
233.688 47.666 0.0
233.589 47.833 0.0
233.50900000000001 48.004 0.0
233.376 48.16 0.0
233.24200000000002 48.316 0.0
233.089 48.464 0.0
232.918 48.602 0.0
232.7 48.71 0.0
232.489 48.823 0.0
232.309 48.956 0.0
232.173 49.109 0.0
232.16500000000002 49.288 0.0
232.155 49.468 0.0
235.239 40.568 -6.5
235.269 40.744 -6.5
235.312 40.919 -6.5
235.405 41.082 -6.5
235.44799999999998 41.256 -6.5
235.451 41.433 -6.5
235.423 41.609 -6.5
235.389 41.785 -6.5
235.35 41.961 -6.5
235.314 42.136 -6.5
235.281 42.312 -6.5
235.253 42.489 -6.5
235.226 42.665 -6.5
235.201 42.842 -6.5
235.17700000000002 43.019 -6.5
235.159 43.196 -6.5
235.14600000000002 43.373 -6.5
235.14 43.551 -6.5
235.13299999999998 43.729 -6.5
235.128 43.906 -6.5
235.124 44.084 -6.5
235.12 44.262 -6.5
235.122 44.439 -6.5
235.123 44.617 -6.5
235.126 44.795 -6.5
235.125 44.972 -6.5
235.113 45.15 -6.5
235.1 45.327 -6.5
235.086 45.504 -6.5
235.065 45.682 -6.5
235.04399999999998 45.859 -6.5
235.02100000000002 46.036 -6.5
234.997 46.213 -6.5
234.971 46.389 -6.5
234.94299999999998 46.566 -6.5
234.893 46.74 -6.5
234.832 46.913 -6.5
234.769 47.085 -6.5
234.688 47.254 -6.5
234.594 47.42 -6.5
234.49200000000002 47.584 -6.5
234.389 47.747 -6.5
234.287 47.911 -6.5
234.173 48.072 -6.5
234.04500000000002 48.227 -6.5
233.902 48.378 -6.5
233.739 48.518 -6.5
233.56799999999998 48.656 -6.5
233.39100000000002 48.789 -6.5
233.209 48.92 -6.5
233.025 49.051 -6.5
232.848 49.185 -6.5
232.678 49.324 -6.5
232.50900000000001 49.463 -6.5
232.34300000000002 49.605 -6.5
235.437 40.531 -11.5
235.53 40.696 -11.5
235.62900000000002 40.86 -11.5
235.72199999999998 41.026 -11.5
235.791 41.197 -11.5
235.821 41.375 -11.5
235.798 41.554 -11.5
235.75 41.73 -11.5
235.704 41.907 -11.5
235.66 42.083 -11.5
235.626 42.261 -11.5
235.59199999999998 42.439 -11.5
235.562 42.618 -11.5
235.537 42.797 -11.5
235.517 42.976 -11.5
235.497 43.155 -11.5
235.483 43.335 -11.5
235.475 43.514 -11.5
235.465 43.694 -11.5
235.461 43.874 -11.5
235.461 44.053 -11.5
235.461 44.233 -11.5
235.461 44.413 -11.5
235.462 44.593 -11.5
235.463 44.773 -11.5
235.466 44.952 -11.5
235.469 45.132 -11.5
235.46699999999998 45.312 -11.5
235.464 45.492 -11.5
235.459 45.672 -11.5
235.452 45.851 -11.5
235.441 46.031 -11.5
235.414 46.21 -11.5
235.388 46.389 -11.5
235.356 46.567 -11.5
235.309 46.744 -11.5
235.251 46.919 -11.5
235.17000000000002 47.09 -11.5
235.082 47.26 -11.5
234.988 47.428 -11.5
234.882 47.593 -11.5
234.79000000000002 47.762 -11.5
234.699 47.931 -11.5
234.601 48.098 -11.5
234.49099999999999 48.262 -11.5
234.368 48.422 -11.5
234.197 48.561 -11.5
234.015 48.696 -11.5
233.824 48.823 -11.5
233.632 48.952 -11.5
233.439 49.079 -11.5
233.24599999999998 49.207 -11.5
233.05200000000002 49.335 -11.5
232.858 49.463 -11.5
232.67000000000002 49.595 -11.5
232.486 49.729 -11.5
235.762 40.409 -16.5
235.975 40.484 -16.5
236.184 40.566 -16.5
236.338 40.699 -16.5
236.372 40.874 -16.5
236.326 41.049 -16.5
236.245 41.217 -16.5
236.16899999999998 41.387 -16.5
236.103 41.559 -16.5
236.04399999999998 41.732 -16.5
235.999 41.908 -16.5
235.957 42.084 -16.5
235.924 42.261 -16.5
235.89600000000002 42.439 -16.5
235.869 42.617 -16.5
235.845 42.795 -16.5
235.825 42.973 -16.5
235.81 43.151 -16.5
235.799 43.33 -16.5
235.793 43.509 -16.5
235.788 43.688 -16.5
235.781 43.867 -16.5
235.78199999999998 44.046 -16.5
235.781 44.225 -16.5
235.78 44.403 -16.5
235.779 44.582 -16.5
235.777 44.761 -16.5
235.776 44.94 -16.5
235.774 45.119 -16.5
235.772 45.298 -16.5
235.76999999999998 45.477 -16.5
235.768 45.656 -16.5
235.764 45.835 -16.5
235.75900000000001 46.013 -16.5
235.757 46.192 -16.5
235.753 46.371 -16.5
235.739 46.55 -16.5
235.697 46.726 -16.5
235.64600000000002 46.902 -16.5
235.578 47.074 -16.5
235.49200000000002 47.243 -16.5
235.39600000000002 47.41 -16.5
235.29500000000002 47.575 -16.5
235.19299999999998 47.741 -16.5
235.09 47.906 -16.5
234.989 48.071 -16.5
234.888 48.237 -16.5
234.777 48.4 -16.5
234.625 48.547 -16.5
234.446 48.681 -16.5
234.252 48.806 -16.5
234.055 48.93 -16.5
233.856 49.052 -16.5
233.65699999999998 49.175 -16.5
233.45999999999998 49.299 -16.5
233.26600000000002 49.426 -16.5
233.07299999999998 49.553 -16.5
232.885 49.684 -16.5
232.701 49.817 -16.5
236.38400000000001 40.158 -21.5
236.539 40.291 -21.5
236.656 40.444 -21.5
236.70999999999998 40.616 -21.5
236.709 40.794 -21.5
236.656 40.966 -21.5
236.52800000000002 41.115 -21.5
236.424 41.274 -21.5
236.37099999999998 41.448 -21.5
236.32299999999998 41.622 -21.5
236.27800000000002 41.796 -21.5
236.24200000000002 41.972 -21.5
236.209 42.148 -21.5
236.185 42.325 -21.5
236.161 42.502 -21.5
236.137 42.679 -21.5
236.11599999999999 42.856 -21.5
236.098 43.033 -21.5
236.082 43.211 -21.5
236.067 43.388 -21.5
236.05700000000002 43.566 -21.5
236.05 43.744 -21.5
236.046 43.922 -21.5
236.047 44.099 -21.5
236.048 44.277 -21.5
236.04399999999998 44.455 -21.5
236.038 44.633 -21.5
236.034 44.811 -21.5
236.03199999999998 44.988 -21.5
236.03199999999998 45.166 -21.5
236.035 45.344 -21.5
236.043 45.522 -21.5
236.049 45.699 -21.5
236.053 45.877 -21.5
236.064 46.055 -21.5
236.078 46.232 -21.5
236.082 46.41 -21.5
236.07299999999998 46.588 -21.5
236.059 46.765 -21.5
236.035 46.942 -21.5
235.993 47.118 -21.5
235.926 47.29 -21.5
235.825 47.453 -21.5
235.71699999999998 47.615 -21.5
235.607 47.777 -21.5
235.495 47.938 -21.5
235.388 48.101 -21.5
235.289 48.266 -21.5
235.192 48.431 -21.5
235.043 48.579 -21.5
234.853 48.705 -21.5
234.652 48.823 -21.5
234.44799999999998 48.939 -21.5
234.244 49.056 -21.5
234.037 49.172 -21.5
233.829 49.287 -21.5
233.623 49.404 -21.5
233.424 49.525 -21.5
233.238 49.656 -21.5
233.058 49.79 -21.5
232.88400000000001 49.928 -21.5
232.72199999999998 50.072 -21.5
236.635 40.051 -26.5
236.75900000000001 40.202 -26.5
236.852 40.366 -26.5
236.89499999999998 40.541 -26.5
236.889 40.719 -26.5
236.841 40.894 -26.5
236.753 41.059 -26.5
236.648 41.22 -26.5
236.564 41.387 -26.5
236.524 41.563 -26.5
236.501 41.741 -26.5
236.485 41.919 -26.5
236.469 42.097 -26.5
236.451 42.276 -26.5
236.434 42.454 -26.5
236.416 42.632 -26.5
236.399 42.81 -26.5
236.38400000000001 42.989 -26.5
236.36700000000002 43.167 -26.5
236.35 43.345 -26.5
236.341 43.524 -26.5
236.333 43.703 -26.5
236.325 43.881 -26.5
236.32 44.06 -26.5
236.317 44.239 -26.5
236.314 44.418 -26.5
236.314 44.596 -26.5
236.308 44.775 -26.5
236.3 44.954 -26.5
236.30200000000002 45.132 -26.5
236.304 45.311 -26.5
236.3 45.49 -26.5
236.297 45.669 -26.5
236.298 45.847 -26.5
236.30700000000002 46.026 -26.5
236.325 46.204 -26.5
236.36599999999999 46.38 -26.5
236.434 46.553 -26.5
236.464 46.73 -26.5
236.463 46.908 -26.5
236.428 47.085 -26.5
236.368 47.259 -26.5
236.288 47.43 -26.5
236.186 47.595 -26.5
236.07299999999998 47.756 -26.5
235.95600000000002 47.917 -26.5
235.851 48.081 -26.5
235.739 48.244 -26.5
235.599 48.396 -26.5
235.44799999999998 48.544 -26.5
235.288 48.688 -26.5
235.102 48.817 -26.5
234.897 48.935 -26.5
234.686 49.048 -26.5
234.47199999999998 49.159 -26.5
234.25799999999998 49.271 -26.5
234.043 49.381 -26.5
233.839 49.501 -26.5
233.635 49.621 -26.5
233.452 49.755 -26.5
233.279 49.895 -26.5
233.115 50.039 -26.5
232.974 50.193 -26.5
236.844 40.031 -31.5
236.93200000000002 40.197 -31.5
236.998 40.368 -31.5
237.035 40.545 -31.5
237.031 40.724 -31.5
236.981 40.898 -31.5
236.89600000000002 41.065 -31.5
236.789 41.225 -31.5
236.70999999999998 41.393 -31.5
236.676 41.57 -31.5
236.659 41.749 -31.5
236.643 41.928 -31.5
236.63 42.106 -31.5
236.618 42.285 -31.5
236.606 42.464 -31.5
236.594 42.643 -31.5
236.584 42.821 -31.5
236.575 43.0 -31.5
236.565 43.179 -31.5
236.55599999999998 43.358 -31.5
236.549 43.537 -31.5
236.546 43.716 -31.5
236.543 43.895 -31.5
236.538 44.074 -31.5
236.53300000000002 44.253 -31.5
236.53300000000002 44.432 -31.5
236.529 44.61 -31.5
236.529 44.789 -31.5
236.534 44.968 -31.5
236.538 45.147 -31.5
236.542 45.326 -31.5
236.55 45.505 -31.5
236.559 45.684 -31.5
236.571 45.863 -31.5
236.58499999999998 46.041 -31.5
236.599 46.22 -31.5
236.649 46.396 -31.5
236.725 46.567 -31.5
236.776 46.742 -31.5
236.791 46.921 -31.5
236.777 47.099 -31.5
236.735 47.276 -31.5
236.675 47.45 -31.5
236.595 47.621 -31.5
236.505 47.789 -31.5
236.406 47.956 -31.5
236.299 48.119 -31.5
236.176 48.278 -31.5
236.039 48.432 -31.5
235.876 48.575 -31.5
235.699 48.71 -31.5
235.50799999999998 48.837 -31.5
235.301 48.953 -31.5
235.095 49.071 -31.5
234.886 49.186 -31.5
234.674 49.3 -31.5
234.462 49.414 -31.5
234.25799999999998 49.534 -31.5
234.065 49.661 -31.5
233.882 49.796 -31.5
233.715 49.938 -31.5
233.555 50.085 -31.5
233.416 50.24 -31.5
233.287 50.399 -31.5
235.1 40.384 -3.3
232.122 49.693 -3.3
235.281 40.377 -9.0
232.24200000000002 49.807 -9.0
235.471 40.329 -14.0
232.411 49.909 -14.0
235.74200000000002 40.23 -17.8
235.904 40.163 -19.1
236.065 40.095 -20.3
232.541 50.085 -19.0
236.35899999999998 39.969 -24.0
232.69799999999998 50.283 -24.0
236.615 39.891 -29.0
232.997 50.454 -29.0
234.736 46.461 -4.7
234.64600000000002 46.791 -4.8
234.916 41.672 -2.1
234.514 47.122 -4.8
234.477 46.235 -2.0
234.36700000000002 46.584 -2.0
235.13299999999998 42.007 -4.5
234.162 47.276 -2.5
234.82 45.899 -4.3
235.036 41.366 -2.2
234.12900000000002 47.77 -4.4
234.047 47.495 -2.2
234.933 43.458 -4.2
234.839 44.265 -2.7
233.725 47.955 -2.3
234.858 45.586 -4.2
234.73399999999998 45.343 -2.4
234.90300000000002 45.053 -4.2
234.74 43.733 -2.4
234.755 43.911 -2.5
234.643 45.671 -2.1
233.786 48.221 -4.6
232.57999999999998 49.168 -4.2
234.787 44.08 -2.7
234.911 42.282 -2.2
234.862 42.16 -2.0
234.248 46.938 -2.1
234.595 46.953 -4.9
234.70600000000002 46.618 -4.8
235.248 41.188 -4.2
234.914 41.826 -2.0
232.74200000000002 48.885 -2.5
234.78199999999998 44.79 -2.1
234.909 44.529 -3.8
234.535 46.06 -2.0
233.488 48.49 -4.2
233.183 48.63 -2.8
234.951 42.568 -2.7
234.957 43.141 -3.6
235.189 41.661 -4.5
234.921 42.84 -2.8
233.011 48.768 -3.0
234.813 43.303 -2.4
234.334 47.443 -4.7
234.723 46.182 -4.0
234.767 45.17 -2.6
234.92700000000002 45.258 -4.5
235.184 41.056 -3.3
234.32 46.758 -2.1
233.95 47.654 -2.2
232.411 49.299 -3.8
234.225 47.622 -4.5
234.215 47.089 -2.3
234.93 43.644 -4.4
234.736 43.555 -2.3
234.422 46.406 -2.0
235.166 41.851 -4.5
234.024 47.926 -4.5
233.52100000000002 48.295 -2.7
234.837 45.75 -4.2
235.236 41.503 -4.6
234.756 43.43 -2.3
234.878 45.435 -4.1
232.57299999999998 48.99 -2.5
234.43099999999998 47.282 -4.8
233.84199999999998 47.804 -2.3
234.588 45.868 -2.1
234.911 44.883 -3.8
235.122 40.45 -3.7
234.791 44.646 -2.2
235.09300000000002 42.2 -4.3
234.924 43.814 -4.4
233.893 48.09 -4.5
234.377 46.998 -3.3
234.963 41.518 -2.0
235.048 42.708 -4.3
235.276 41.348 -4.6
232.97899999999998 48.929 -4.8
232.174 49.619 -3.1
234.923 42.001 -2.4
234.674 45.523 -2.1
234.987 44.147 -5.0
234.933 43.993 -4.4
232.813 49.027 -4.7
234.709 44.938 -1.9
235.09699999999998 42.386 -4.2
234.638 46.35 -3.6
233.588 48.137 -2.0
234.566 46.524 -3.5
232.41500000000002 49.088 -2.1
234.869 42.696 -2.0
234.95999999999998 44.719 -4.4
234.936 44.401 -4.1
233.685 48.379 -4.9
234.511 46.679 -3.5
235.05200000000002 41.214 -2.0
235.003 43.296 -4.7
234.773 44.422 -2.0
234.44 46.87 -3.4
234.833 46.068 -4.7
234.826 46.311 -5.1
233.265 48.528 -2.5
235.058 41.755 -3.4
233.37099999999998 48.628 -4.5
233.2 48.754 -4.4
235.112 42.551 -4.7
235.013 42.979 -4.2
232.29399999999998 49.76 -8.9
235.22899999999998 45.96 -8.9
235.20499999999998 46.135 -8.9
235.179 46.314 -8.9
235.152 46.476 -8.9
235.245 45.778 -8.9
234.137 48.377 -8.8
235.589 41.146 -8.9
235.1 46.677 -8.7
235.25900000000001 45.6 -8.9
235.611 41.343 -8.7
235.046 46.843 -8.8
233.963 48.531 -8.9
234.274 48.21 -8.8
235.26999999999998 45.42 -8.9
235.601 41.536 -8.8
234.392 48.043 -8.7
235.27800000000002 45.242 -8.9
233.788 48.668 -8.9
234.969 47.028 -8.7
235.285 45.061 -8.9
234.497 47.876 -8.7
235.55700000000002 41.719 -8.7
235.286 44.882 -8.9
235.28300000000002 44.702 -8.9
235.28 44.348 -8.9
235.28199999999998 44.525 -8.9
233.607 48.799 -8.9
234.887 47.204 -8.7
235.28 44.168 -8.8
234.591 47.714 -8.7
235.281 43.989 -8.8
235.495 40.956 -8.9
234.793 47.377 -8.7
235.523 41.862 -8.7
235.293 43.465 -8.8
235.28199999999998 43.815 -8.8
233.42000000000002 48.929 -8.9
235.453 40.839 -9.1
235.34199999999998 43.238 -9.3
235.288 43.633 -8.8
235.35899999999998 43.059 -9.3
234.689 47.543 -8.7
235.49200000000002 42.189 -9.3
235.461 42.355 -9.3
235.38 42.89 -9.3
235.43200000000002 42.53 -9.3
235.404 42.706 -9.3
233.232 49.058 -8.9
235.369 40.642 -9.0
235.30700000000002 40.454 -9.0
233.049 49.181 -8.9
235.505 42.02 -9.0
236.152 40.789 -15.1
235.957 40.658 -14.8
235.953 41.067 -13.0
235.66500000000002 40.558 -13.7
235.872 40.885 -13.0
235.589 40.434 -14.4
235.765 40.729 -13.2
236.07999999999998 41.27 -14.3
232.527 49.856 -14.7
236.05700000000002 40.92 -14.1
235.537 46.492 -13.8
235.503 46.651 -13.7
235.438 46.856 -13.6
235.356 47.067 -13.7
236.171 41.092 -14.8
235.27800000000002 47.225 -13.7
236.01600000000002 41.447 -14.3
235.622 43.956 -14.0
235.561 46.308 -13.8
235.62 44.135 -14.0
235.626 43.781 -14.0
235.631 43.603 -14.1
235.091 47.615 -14.3
235.642 43.421 -14.1
235.622 44.316 -14.0
235.188 47.383 -13.7
235.834 40.575 -14.8
235.622 44.494 -14.0
235.649 43.242 -14.1
235.622 44.672 -14.0
235.623 44.85 -14.0
234.99599999999998 47.78 -14.3
235.67000000000002 43.056 -14.2
235.69 42.873 -14.1
235.577 46.123 -13.8
234.56 48.407 -13.8
235.713 42.695 -14.2
235.627 45.031 -14.1
235.737 42.515 -14.1
234.692 48.276 -14.3
234.899 47.95 -14.3
235.627 45.212 -14.1
235.623 45.386 -14.1
235.623 45.569 -14.1
235.59199999999998 45.948 -13.8
235.767 42.348 -14.2
235.61700000000002 45.743 -14.1
234.80200000000002 48.108 -14.3
235.814 42.16 -14.3
234.42000000000002 48.553 -14.1
235.95999999999998 41.624 -14.4
235.813 42.029 -13.8
235.902 41.803 -14.4
236.231 40.941 -15.3
234.25400000000002 48.682 -14.2
235.98399999999998 40.797 -14.1
236.062 40.236 -19.4
236.316 40.319 -20.0
236.406 40.536 -18.8
236.224 40.169 -20.6
235.93099999999998 40.322 -18.1
236.086 40.389 -18.2
235.72199999999998 47.203 -18.8
235.805 47.022 -18.9
235.62099999999998 47.373 -18.8
235.858 46.841 -18.9
236.531 40.705 -19.2
235.51600000000002 47.54 -18.8
232.703 49.954 -19.1
235.409 47.703 -18.8
235.902 46.661 -19.1
234.96800000000002 48.394 -18.8
235.31900000000002 47.843 -18.8
236.28 40.451 -18.7
235.18099999999998 48.142 -19.3
234.828 48.531 -18.7
235.23399999999998 48.006 -19.0
236.486 40.989 -18.9
235.92000000000002 46.483 -19.1
236.54399999999998 40.834 -19.2
233.247 49.54 -18.9
234.648 48.684 -19.0
236.44 40.41 -20.1
235.928 46.323 -19.2
233.44299999999998 49.413 -19.1
236.37900000000002 41.162 -18.9
233.062 49.668 -18.9
235.93200000000002 46.149 -19.2
233.638 49.289 -19.0
234.45499999999998 48.811 -19.1
232.88 49.801 -18.9
235.091 48.264 -19.1
235.93200000000002 45.97 -19.3
236.293 41.326 -18.8
234.255 48.932 -19.1
233.837 49.169 -18.9
236.574 40.557 -20.3
235.939 47.603 -23.9
236.24 46.855 -23.8
236.043 47.437 -23.8
235.834 47.757 -23.9
236.204 47.056 -23.8
235.618 48.072 -23.9
235.72199999999998 47.916 -23.9
236.138 47.235 -23.7
236.251 46.667 -23.8
235.51600000000002 48.23 -23.9
236.485 40.048 -24.5
236.244 46.503 -23.8
235.375 48.412 -23.8
236.214 46.32 -23.9
235.268 48.534 -23.9
236.551 40.154 -23.9
232.924 50.07 -24.2
232.786 50.19 -24.0
236.701 40.328 -23.8
233.08100000000002 49.913 -24.0
236.959 40.631 -28.8
236.18200000000002 47.978 -29.3
233.094 50.317 -28.8
236.078 48.121 -29.2
236.279 47.825 -29.2
236.591 41.656 -29.1
236.62900000000002 41.475 -29.4
236.572 41.834 -29.0
236.55599999999998 42.012 -29.0
236.95 40.802 -29.2
235.801 48.408 -28.8
236.541 42.191 -29.0
236.36700000000002 47.684 -29.2
233.203 50.185 -28.8
236.7 39.964 -29.5
236.526 42.369 -29.0
233.34199999999998 50.035 -28.7
236.488 47.379 -28.7
235.65699999999998 48.543 -28.8
236.511 42.548 -28.9
235.963 48.259 -29.1
236.607 47.012 -28.8
233.503 49.895 -28.8
236.55599999999998 47.198 -28.7
236.49599999999998 42.726 -28.9
233.664 49.794 -29.2
236.449 47.519 -29.1
233.856 49.65 -29.2
234.049 49.525 -29.2
236.483 42.904 -28.9
235.494 48.68 -28.8
236.638 46.837 -29.2
236.47 43.083 -28.9
236.457 43.262 -28.9
235.29500000000002 48.825 -28.9
234.24599999999998 49.401 -29.0
236.44400000000002 43.437 -28.9
236.437 43.617 -28.9
234.453 49.287 -28.9
236.43 43.794 -28.8
235.08499999999998 48.945 -28.9
236.40699999999998 44.687 -28.7
236.435 44.162 -29.2
236.43 44.52 -29.2
236.438 43.983 -29.2
234.666 49.173 -28.9
234.878 49.06 -28.9
236.41500000000002 44.329 -28.8
236.627 46.671 -29.3
236.41 44.868 -28.8
$EndNodes
$Elements
1 1388 1 1388
2 1 2 1388
1 2 68 520 
2 492 66 531 
3 30 29 480 
4 15 1 510 
5 494 445 506 
6 67 66 492 
7 481 444 516 
8 502 481 516 
9 471 518 537 
10 479 26 527 
11 70 71 17 
12 453 449 485 
13 70 17 16 
14 456 514 529 
15 449 494 506 
16 512 467 521 
17 480 29 548 
18 68 67 492 
19 448 512 521 
20 518 451 537 
21 472 498 521 
22 477 60 500 
23 514 463 529 
24 60 477 543 
25 498 448 521 
26 473 63 483 
27 30 480 484 
28 476 450 541 
29 458 488 504 
30 450 476 508 
31 458 487 488 
32 70 16 69 
33 26 466 527 
34 69 16 15 
35 24 23 521 
36 29 482 548 
37 444 481 544 
38 467 24 521 
39 451 502 516 
40 63 62 483 
41 68 123 520 
42 54 449 453 
43 479 527 547 
44 445 494 515 
45 501 450 508 
46 453 485 493 
47 485 449 506 
48 459 487 526 
49 488 96 504 
50 454 484 538 
51 482 82 548 
52 462 501 508 
53 473 483 519 
54 491 453 493 
55 497 528 530 
56 460 33 496 
57 487 41 526 
58 502 451 518 
59 528 442 530 
60 475 92 533 
61 463 500 529 
62 452 499 507 
63 484 454 503 
64 82 482 517 
65 58 456 529 
66 468 51 490 
67 38 475 511 
68 491 452 507 
69 464 492 531 
70 455 90 534 
71 486 476 541 
72 452 491 493 
73 51 50 490 
74 495 87 513 
75 21 20 516 
76 511 475 533 
77 466 467 512 
78 475 38 539 
79 37 36 455 
80 90 455 523 
81 33 32 496 
82 78 79 512 
83 31 30 484 
84 476 46 508 
85 29 28 482 
86 34 460 461 
87 481 76 498 
88 495 460 496 
89 42 41 487 
90 91 92 475 
91 23 22 472 
92 40 39 474 
93 483 118 519 
94 64 63 473 
95 500 463 535 
96 444 21 516 
97 446 476 486 
98 93 94 509 
99 20 19 451 
100 484 480 538 
101 446 47 476 
102 56 55 491 
103 43 42 458 
104 83 84 480 
105 58 57 456 
106 76 77 498 
107 50 447 490 
108 34 33 460 
109 54 53 449 
110 45 44 462 
111 50 49 447 
112 52 51 468 
113 75 76 481 
114 47 46 476 
115 48 47 446 
116 62 478 483 
117 448 78 512 
118 18 489 537 
119 32 31 503 
120 62 61 478 
121 65 64 505 
122 120 121 464 
123 121 122 492 
124 77 78 448 
125 85 86 454 
126 22 444 472 
127 104 105 443 
128 102 103 442 
129 94 95 459 
130 107 108 506 
131 109 110 493 
132 110 111 452 
133 111 112 499 
134 106 107 445 
135 108 109 485 
136 113 114 463 
137 464 121 492 
138 110 452 493 
139 22 21 444 
140 104 443 470 
141 106 445 469 
142 96 97 504 
143 115 116 477 
144 72 73 471 
145 99 100 450 
146 98 99 501 
147 97 98 457 
148 447 49 497 
149 49 48 497 
150 74 75 502 
151 485 109 493 
152 457 98 501 
153 72 471 489 
154 45 462 508 
155 35 34 461 
156 26 25 466 
157 77 448 498 
158 27 26 479 
159 43 458 522 
160 48 446 497 
161 99 450 501 
162 455 36 465 
163 457 462 522 
164 462 457 501 
165 31 484 503 
166 75 481 502 
167 517 479 547 
168 512 79 527 
169 46 45 508 
170 53 52 494 
171 118 483 546 
172 466 25 467 
173 87 88 513 
174 60 59 500 
175 97 457 504 
176 108 485 506 
177 462 44 522 
178 94 459 509 
179 103 104 470 
180 101 486 541 
181 458 42 487 
182 86 87 495 
183 489 471 537 
184 452 111 499 
185 52 468 494 
186 509 459 526 
187 445 107 506 
188 449 53 494 
189 17 71 489 
190 61 60 543 
191 105 106 469 
192 69 15 510 
193 513 88 524 
194 56 491 507 
195 536 443 540 
196 18 17 489 
197 23 472 521 
198 455 465 523 
199 55 453 491 
200 120 464 525 
201 460 495 513 
202 82 83 548 
203 35 461 465 
204 490 536 540 
205 454 86 495 
206 81 517 547 
207 57 56 507 
208 464 505 525 
209 499 456 507 
210 44 43 522 
211 480 84 538 
212 85 454 538 
213 64 473 505 
214 88 89 524 
215 443 105 469 
216 499 112 514 
217 90 91 534 
218 113 463 514 
219 456 57 507 
220 456 499 514 
221 454 495 496 
222 36 35 465 
223 39 38 511 
224 500 59 529 
225 442 103 470 
226 100 101 541 
227 497 446 528 
228 498 472 544 
229 102 442 542 
230 504 457 522 
231 482 28 532 
232 115 477 535 
233 112 113 514 
234 458 504 522 
235 71 72 489 
236 20 451 516 
237 451 19 537 
238 466 512 527 
239 486 101 542 
240 477 500 535 
241 25 24 467 
242 474 39 511 
243 55 54 453 
244 73 74 518 
245 461 513 524 
246 487 459 488 
247 461 460 513 
248 463 114 535 
249 471 73 518 
250 74 502 518 
251 79 80 527 
252 517 482 532 
253 40 474 526 
254 81 82 517 
255 474 509 526 
256 469 445 515 
257 468 490 540 
258 479 517 532 
259 446 486 528 
260 65 505 531 
261 117 118 546 
262 119 120 525 
263 473 519 525 
264 37 455 539 
265 66 65 531 
266 93 509 533 
267 116 117 545 
268 490 447 536 
269 442 528 542 
270 28 27 532 
271 496 32 503 
272 92 93 533 
273 91 475 534 
274 114 115 535 
275 477 116 545 
276 38 37 539 
277 59 58 529 
278 465 461 524 
279 459 95 488 
280 470 443 536 
281 27 479 532 
282 19 18 537 
283 118 119 519 
284 472 444 544 
285 447 497 530 
286 478 61 543 
287 545 117 546 
288 41 40 526 
289 523 465 524 
290 505 464 531 
291 505 473 525 
292 89 90 523 
293 474 511 533 
294 84 85 538 
295 443 469 540 
296 80 81 547 
297 101 102 542 
298 481 498 544 
299 450 100 541 
300 95 96 488 
301 83 480 548 
302 483 478 546 
303 455 534 539 
304 89 523 524 
305 527 80 547 
306 428 3 510 
307 429 2 520 
308 494 468 515 
309 442 470 530 
310 509 474 533 
311 519 119 525 
312 454 496 503 
313 478 545 546 
314 530 470 536 
315 469 515 540 
316 528 486 542 
317 447 530 536 
318 543 477 545 
319 534 475 539 
320 478 543 545 
321 515 468 540 
322 3 69 510 
323 123 4 520 
324 1 428 510 
325 4 429 520 
326 123 68 492 
327 122 123 492 
328 176 121 120 
329 176 177 121 
330 3 430 599 
331 430 5 599 
332 123 178 179 
333 177 122 121 
334 177 178 122 
335 167 565 570 
336 178 123 122 
337 166 167 570 
338 559 129 564 
339 166 570 579 
340 165 166 579 
341 584 85 588 
342 129 130 564 
343 168 562 565 
344 165 579 591 
345 164 165 591 
346 167 168 565 
347 140 584 588 
348 577 162 582 
349 162 163 582 
350 568 161 577 
351 79 78 592 
352 169 555 562 
353 79 592 593 
354 582 164 591 
355 564 131 571 
356 130 131 564 
357 163 164 582 
358 161 162 577 
359 560 160 568 
360 168 169 562 
361 571 132 583 
362 131 132 571 
363 160 161 568 
364 80 79 593 
365 80 593 595 
366 125 70 598 
367 557 159 560 
368 553 158 557 
369 159 160 560 
370 81 595 596 
371 81 80 595 
372 556 128 559 
373 158 159 557 
374 594 82 596 
375 82 81 596 
376 127 556 581 
377 590 83 594 
378 83 82 594 
379 128 129 559 
380 588 84 590 
381 70 125 587 
382 555 170 561 
383 550 155 551 
384 155 156 551 
385 84 83 590 
386 551 156 552 
387 156 157 552 
388 552 157 553 
389 157 158 553 
390 154 155 550 
391 169 170 555 
392 154 550 554 
393 85 84 588 
394 176 120 600 
395 556 72 581 
396 153 154 554 
397 153 554 558 
398 73 556 559 
399 123 179 549 
400 152 153 558 
401 140 141 584 
402 152 558 563 
403 584 141 589 
404 141 142 589 
405 74 559 564 
406 126 127 581 
407 151 152 563 
408 103 553 557 
409 132 133 601 
410 114 555 561 
411 151 563 566 
412 142 143 585 
413 150 151 566 
414 170 171 561 
415 100 99 550 
416 561 171 567 
417 149 569 572 
418 143 144 580 
419 101 100 551 
420 144 145 578 
421 100 550 551 
422 550 99 554 
423 555 113 562 
424 101 551 552 
425 142 585 589 
426 102 101 552 
427 124 69 599 
428 144 578 580 
429 150 566 569 
430 143 580 585 
431 102 552 553 
432 145 146 574 
433 99 98 554 
434 103 102 553 
435 78 77 601 
436 149 150 569 
437 114 113 555 
438 104 557 560 
439 146 147 575 
440 127 128 556 
441 145 574 578 
442 554 98 558 
443 574 146 575 
444 562 112 565 
445 567 172 576 
446 147 148 573 
447 558 97 563 
448 98 97 558 
449 148 149 572 
450 147 573 575 
451 105 104 560 
452 115 561 567 
453 104 103 557 
454 171 172 567 
455 148 572 573 
456 115 114 561 
457 583 132 601 
458 113 112 562 
459 73 72 556 
460 106 568 577 
461 116 567 576 
462 75 74 564 
463 565 111 570 
464 105 560 568 
465 97 96 563 
466 569 94 572 
467 124 125 598 
468 563 96 566 
469 75 564 571 
470 74 73 559 
471 116 115 567 
472 96 95 566 
473 172 173 576 
474 112 111 565 
475 107 577 582 
476 70 69 598 
477 71 70 587 
478 106 105 568 
479 566 95 569 
480 576 173 586 
481 95 94 569 
482 111 110 570 
483 173 174 586 
484 76 571 583 
485 94 93 572 
486 76 75 571 
487 93 92 573 
488 139 588 590 
489 92 91 575 
490 117 116 576 
491 174 175 597 
492 91 90 574 
493 108 582 591 
494 107 106 577 
495 572 93 573 
496 570 110 579 
497 72 71 581 
498 573 92 575 
499 175 176 600 
500 90 89 578 
501 91 574 575 
502 117 576 586 
503 586 174 597 
504 137 594 596 
505 592 78 601 
506 110 109 579 
507 578 89 580 
508 593 135 595 
509 77 76 583 
510 89 88 580 
511 595 136 596 
512 108 107 582 
513 138 590 594 
514 86 85 584 
515 125 126 587 
516 580 88 585 
517 138 139 590 
518 118 117 586 
519 88 87 585 
520 592 134 593 
521 579 109 591 
522 86 584 589 
523 139 140 588 
524 574 90 578 
525 87 86 589 
526 133 134 592 
527 134 135 593 
528 137 138 594 
529 109 108 591 
530 118 586 597 
531 135 136 595 
532 136 137 596 
533 119 118 597 
534 585 87 589 
535 120 119 600 
536 597 175 600 
537 69 124 598 
538 119 597 600 
539 581 71 587 
540 126 581 587 
541 431 4 549 
542 77 583 601 
543 133 592 601 
544 69 3 599 
545 4 123 549 
546 5 124 599 
547 179 6 549 
548 6 431 549 
549 182 602 603 
550 605 124 607 
551 128 604 609 
552 182 183 602 
553 129 128 609 
554 7 180 607 
555 230 231 171 
556 231 172 171 
557 222 624 627 
558 238 179 178 
559 237 238 178 
560 624 163 627 
561 218 219 614 
562 237 178 177 
563 614 219 615 
564 237 177 236 
565 231 232 172 
566 232 173 172 
567 236 177 176 
568 235 176 175 
569 235 236 176 
570 234 235 175 
571 234 175 174 
572 232 233 173 
573 233 234 174 
574 233 174 173 
575 606 126 608 
576 180 605 607 
577 609 604 616 
578 606 608 657 
579 129 609 618 
580 190 132 654 
581 132 190 653 
582 613 217 614 
583 217 218 614 
584 219 220 615 
585 615 220 617 
586 181 182 603 
587 125 124 605 
588 612 216 613 
589 617 221 627 
590 220 221 617 
591 216 217 613 
592 127 126 606 
593 647 134 650 
594 192 647 650 
595 221 222 627 
596 608 603 657 
597 164 624 633 
598 130 129 618 
599 165 164 633 
600 165 633 642 
601 604 127 606 
602 128 127 604 
603 164 163 624 
604 166 165 642 
605 212 646 648 
606 183 184 602 
607 646 154 648 
608 166 642 649 
609 130 618 652 
610 215 216 612 
611 215 612 620 
612 167 166 649 
613 125 605 608 
614 8 433 610 
615 131 652 654 
616 131 130 652 
617 603 602 657 
618 126 125 608 
619 605 180 628 
620 180 181 628 
621 168 167 641 
622 214 215 620 
623 214 620 636 
624 230 171 656 
625 181 603 628 
626 641 167 649 
627 637 228 651 
628 132 131 654 
629 179 238 610 
630 604 611 616 
631 190 191 653 
632 134 133 650 
633 213 214 636 
634 160 614 615 
635 213 636 646 
636 169 637 651 
637 192 193 647 
638 158 612 613 
639 619 143 622 
640 635 137 638 
641 638 136 640 
642 634 138 635 
643 227 228 637 
644 625 140 630 
645 603 608 628 
646 137 136 638 
647 212 213 646 
648 630 139 634 
649 138 137 635 
650 139 138 634 
651 141 140 625 
652 144 143 619 
653 159 613 614 
654 136 135 640 
655 602 184 655 
656 201 619 622 
657 161 615 617 
658 623 141 625 
659 142 141 623 
660 162 617 627 
661 143 142 622 
662 149 632 639 
663 198 625 630 
664 432 7 607 
665 612 157 620 
666 146 145 626 
667 140 139 630 
668 200 201 622 
669 153 152 645 
670 202 203 621 
671 144 619 621 
672 199 200 623 
673 147 146 629 
674 622 142 623 
675 154 153 648 
676 145 144 621 
677 148 147 631 
678 146 626 629 
679 152 644 645 
680 200 622 623 
681 162 161 617 
682 620 156 636 
683 151 150 643 
684 158 157 612 
685 161 160 615 
686 150 149 639 
687 147 629 631 
688 149 148 632 
689 197 198 630 
690 604 606 611 
691 621 203 626 
692 159 158 613 
693 203 204 626 
694 148 631 632 
695 199 623 625 
696 145 621 626 
697 197 630 634 
698 619 202 621 
699 171 170 656 
700 152 151 644 
701 626 204 629 
702 204 205 629 
703 196 634 635 
704 652 189 654 
705 632 207 639 
706 201 202 619 
707 629 205 631 
708 222 223 624 
709 198 199 625 
710 157 156 620 
711 205 206 631 
712 160 159 614 
713 609 187 618 
714 170 169 651 
715 163 162 627 
716 153 645 648 
717 150 639 643 
718 194 638 640 
719 195 635 638 
720 631 206 632 
721 151 643 644 
722 206 207 632 
723 608 605 628 
724 624 223 633 
725 193 194 640 
726 196 197 634 
727 616 611 655 
728 195 196 635 
729 642 225 649 
730 194 195 638 
731 223 224 633 
732 633 224 642 
733 618 188 652 
734 186 609 616 
735 156 155 636 
736 644 210 645 
737 169 168 637 
738 207 208 639 
739 211 212 648 
740 636 155 646 
741 209 210 644 
742 226 227 641 
743 155 154 646 
744 208 209 643 
745 135 134 647 
746 224 225 642 
747 210 211 645 
748 186 187 609 
749 225 226 649 
750 639 208 643 
751 228 229 651 
752 184 185 655 
753 133 132 653 
754 643 209 644 
755 645 211 648 
756 191 192 650 
757 187 188 618 
758 185 186 616 
759 189 190 654 
760 229 230 656 
761 188 189 652 
762 611 602 655 
763 226 641 649 
764 602 611 657 
765 170 651 656 
766 651 229 656 
767 611 606 657 
768 193 640 647 
769 650 133 653 
770 640 135 647 
771 227 637 641 
772 637 168 641 
773 191 650 653 
774 185 616 655 
775 238 8 610 
776 5 432 124 
777 6 179 610 
778 433 6 610 
779 124 432 607 
780 256 197 196 
781 253 193 252 
782 257 197 256 
783 271 272 212 
784 252 193 192 
785 293 232 231 
786 251 252 192 
787 212 211 271 
788 257 198 197 
789 292 293 231 
790 258 198 257 
791 250 251 191 
792 251 192 191 
793 250 191 190 
794 271 211 270 
795 258 199 198 
796 249 250 190 
797 211 210 270 
798 259 199 258 
799 249 189 248 
800 247 188 187 
801 249 190 189 
802 260 261 201 
803 259 200 199 
804 259 260 200 
805 263 204 203 
806 260 201 200 
807 248 189 188 
808 264 204 263 
809 269 270 210 
810 262 263 203 
811 248 188 247 
812 261 262 202 
813 261 202 201 
814 262 203 202 
815 264 205 204 
816 265 205 264 
817 269 210 209 
818 265 206 205 
819 269 209 268 
820 266 206 265 
821 268 209 208 
822 267 268 208 
823 267 207 266 
824 266 207 206 
825 267 208 207 
826 658 659 663 
827 659 658 661 
828 300 437 670 
829 666 281 669 
830 281 282 669 
831 664 280 666 
832 669 282 671 
833 282 283 671 
834 280 281 666 
835 671 283 674 
836 283 284 674 
837 7 434 180 
838 183 668 681 
839 437 8 670 
840 673 288 677 
841 184 183 681 
842 287 288 673 
843 299 300 670 
844 279 664 665 
845 279 280 664 
846 236 235 682 
847 235 234 686 
848 8 238 670 
849 212 272 694 
850 239 240 659 
851 296 297 682 
852 180 434 662 
853 295 296 686 
854 226 225 693 
855 237 236 688 
856 187 186 695 
857 181 180 662 
858 434 435 662 
859 183 660 668 
860 225 676 693 
861 183 182 660 
862 278 665 667 
863 234 233 690 
864 297 298 688 
865 182 181 663 
866 677 289 683 
867 278 279 665 
868 284 285 678 
869 664 219 665 
870 186 185 687 
871 435 436 658 
872 9 239 661 
873 182 663 675 
874 227 673 677 
875 294 295 690 
876 246 247 695 
877 665 218 667 
878 288 289 677 
879 238 237 692 
880 436 9 661 
881 242 243 668 
882 239 659 661 
883 220 664 666 
884 668 660 698 
885 286 287 693 
886 219 218 665 
887 245 246 687 
888 220 219 664 
889 689 213 694 
890 214 213 689 
891 225 224 678 
892 228 677 683 
893 298 299 692 
894 213 212 694 
895 663 659 675 
896 674 284 678 
897 218 217 667 
898 277 278 667 
899 217 216 672 
900 181 662 663 
901 215 214 685 
902 240 241 684 
903 221 666 669 
904 221 220 666 
905 658 436 661 
906 216 215 680 
907 435 658 662 
908 684 241 698 
909 233 232 697 
910 685 214 689 
911 222 221 669 
912 222 669 671 
913 667 217 672 
914 238 299 670 
915 662 658 663 
916 672 216 680 
917 223 222 671 
918 293 294 697 
919 223 671 674 
920 287 673 693 
921 185 184 679 
922 277 667 672 
923 680 215 685 
924 227 226 673 
925 224 223 674 
926 276 277 672 
927 285 286 676 
928 659 240 684 
929 676 225 678 
930 247 187 695 
931 292 231 696 
932 243 244 681 
933 275 276 680 
934 244 245 679 
935 276 672 680 
936 683 290 691 
937 289 290 683 
938 185 245 687 
939 274 275 685 
940 233 294 690 
941 298 237 688 
942 660 684 698 
943 229 683 691 
944 297 236 682 
945 299 238 692 
946 234 295 686 
947 229 228 683 
948 228 227 677 
949 245 185 679 
950 232 293 697 
951 296 235 686 
952 235 296 682 
953 230 229 691 
954 273 689 694 
955 273 274 689 
956 231 230 696 
957 230 691 696 
958 691 291 696 
959 290 291 691 
960 236 297 688 
961 241 242 698 
962 291 292 696 
963 272 273 694 
964 246 186 687 
965 275 680 685 
966 668 243 681 
967 295 234 690 
968 660 182 675 
969 237 298 692 
970 274 685 689 
971 294 233 697 
972 186 246 695 
973 242 668 698 
974 224 674 678 
975 285 676 678 
976 679 184 681 
977 244 679 681 
978 673 226 693 
979 676 286 693 
980 660 675 684 
981 675 659 684 
982 437 300 10 
983 253 194 193 
984 254 195 194 
985 253 254 194 
986 255 196 195 
987 255 195 254 
988 256 196 255 
989 321 258 320 
990 323 261 260 
991 319 256 318 
992 319 257 256 
993 324 261 323 
994 289 288 352 
995 318 256 255 
996 320 257 319 
997 318 255 317 
998 324 262 261 
999 352 288 351 
1000 320 258 257 
1001 317 255 254 
1002 327 265 264 
1003 324 325 262 
1004 328 265 327 
1005 328 266 265 
1006 317 254 316 
1007 330 331 268 
1008 331 269 268 
1009 327 264 326 
1010 325 263 262 
1011 361 297 360 
1012 330 268 267 
1013 298 297 361 
1014 329 330 267 
1015 307 244 306 
1016 329 266 328 
1017 326 264 263 
1018 326 263 325 
1019 329 267 266 
1020 316 254 253 
1021 331 332 269 
1022 12 439 716 
1023 316 253 315 
1024 332 270 269 
1025 353 289 352 
1026 290 289 353 
1027 315 253 252 
1028 360 296 359 
1029 336 273 335 
1030 274 273 336 
1031 297 296 360 
1032 315 252 314 
1033 703 342 706 
1034 306 244 243 
1035 341 342 703 
1036 354 290 353 
1037 333 270 332 
1038 273 272 335 
1039 272 334 335 
1040 314 252 251 
1041 333 271 270 
1042 291 290 354 
1043 314 251 313 
1044 333 334 271 
1045 272 271 334 
1046 355 291 354 
1047 308 246 245 
1048 296 295 359 
1049 700 340 703 
1050 313 251 250 
1051 292 291 355 
1052 359 295 358 
1053 309 246 308 
1054 340 341 703 
1055 304 242 241 
1056 358 294 357 
1057 239 438 709 
1058 295 294 358 
1059 304 241 303 
1060 313 250 312 
1061 356 292 355 
1062 343 701 706 
1063 293 292 356 
1064 357 293 356 
1065 294 293 357 
1066 305 243 242 
1067 363 12 716 
1068 342 343 706 
1069 312 250 249 
1070 306 243 305 
1071 439 10 716 
1072 305 242 304 
1073 312 249 311 
1074 11 301 709 
1075 10 300 716 
1076 339 700 707 
1077 339 340 700 
1078 310 247 309 
1079 309 247 246 
1080 311 249 248 
1081 311 248 310 
1082 310 248 247 
1083 287 711 713 
1084 711 350 713 
1085 344 699 701 
1086 343 344 701 
1087 351 288 713 
1088 347 348 704 
1089 346 347 705 
1090 344 345 699 
1091 347 704 705 
1092 699 345 702 
1093 345 346 702 
1094 702 346 705 
1095 704 348 708 
1096 701 280 706 
1097 338 339 707 
1098 240 302 717 
1099 302 240 714 
1100 279 703 706 
1101 338 707 710 
1102 278 700 703 
1103 348 349 708 
1104 700 277 707 
1105 699 281 701 
1106 708 349 711 
1107 282 281 699 
1108 278 277 700 
1109 282 699 702 
1110 281 280 701 
1111 283 282 702 
1112 283 702 705 
1113 285 284 704 
1114 279 278 703 
1115 277 276 707 
1116 284 283 705 
1117 286 285 708 
1118 704 284 705 
1119 280 279 706 
1120 349 350 711 
1121 707 276 710 
1122 285 704 708 
1123 715 299 718 
1124 362 715 718 
1125 710 275 712 
1126 286 708 711 
1127 301 302 714 
1128 337 710 712 
1129 276 275 710 
1130 337 338 710 
1131 438 11 709 
1132 298 361 718 
1133 300 299 715 
1134 239 709 714 
1135 287 286 711 
1136 302 303 717 
1137 350 351 713 
1138 274 336 712 
1139 241 240 717 
1140 288 287 713 
1141 336 337 712 
1142 240 239 714 
1143 361 362 718 
1144 275 274 712 
1145 362 363 715 
1146 299 298 718 
1147 303 241 717 
1148 709 301 714 
1149 300 715 716 
1150 715 363 716 
1151 9 438 239 
1152 307 245 244 
1153 308 245 307 
1154 321 259 258 
1155 322 260 259 
1156 322 259 321 
1157 323 260 322 
1158 315 314 734 
1159 398 335 397 
1160 335 334 397 
1161 396 397 334 
1162 336 335 398 
1163 396 334 333 
1164 336 398 399 
1165 377 378 734 
1166 396 333 395 
1167 13 364 733 
1168 392 330 329 
1169 395 333 332 
1170 392 393 330 
1171 393 331 330 
1172 394 332 331 
1173 393 394 331 
1174 394 395 332 
1175 316 315 738 
1176 378 379 738 
1177 399 400 337 
1178 365 302 364 
1179 337 336 399 
1180 346 345 723 
1181 720 346 723 
1182 347 346 722 
1183 346 720 722 
1184 364 302 301 
1185 401 338 400 
1186 317 316 743 
1187 400 338 337 
1188 301 440 733 
1189 379 380 743 
1190 427 721 732 
1191 441 427 14 
1192 723 345 731 
1193 345 344 731 
1194 426 427 732 
1195 318 317 748 
1196 380 381 748 
1197 319 318 751 
1198 381 382 751 
1199 425 426 735 
1200 426 732 735 
1201 320 319 752 
1202 427 441 721 
1203 382 383 752 
1204 405 736 742 
1205 348 347 739 
1206 338 401 767 
1207 321 320 755 
1208 369 306 728 
1209 729 413 737 
1210 441 12 721 
1211 12 363 721 
1212 412 413 729 
1213 405 406 736 
1214 383 384 755 
1215 322 321 756 
1216 347 722 739 
1217 424 425 741 
1218 328 327 760 
1219 344 343 745 
1220 425 735 741 
1221 740 404 742 
1222 389 390 762 
1223 384 385 756 
1224 326 325 766 
1225 387 388 761 
1226 323 322 758 
1227 737 414 749 
1228 327 326 762 
1229 386 387 763 
1230 390 391 760 
1231 373 310 725 
1232 731 344 745 
1233 404 405 742 
1234 388 389 766 
1235 413 414 737 
1236 385 386 758 
1237 325 324 761 
1238 368 305 719 
1239 324 323 763 
1240 364 301 733 
1241 304 367 719 
1242 744 359 746 
1243 411 412 739 
1244 409 410 720 
1245 360 359 744 
1246 329 328 768 
1247 339 338 767 
1248 410 411 722 
1249 408 409 723 
1250 406 407 745 
1251 391 392 768 
1252 341 740 742 
1253 409 720 723 
1254 374 311 724 
1255 310 373 724 
1256 753 416 759 
1257 352 753 759 
1258 376 313 727 
1259 749 415 753 
1260 746 358 747 
1261 736 342 742 
1262 309 372 725 
1263 311 374 726 
1264 375 312 726 
1265 349 729 737 
1266 720 410 722 
1267 312 375 727 
1268 377 314 730 
1269 363 362 732 
1270 305 368 728 
1271 349 348 729 
1272 350 737 749 
1273 340 339 750 
1274 403 404 740 
1275 407 408 731 
1276 313 376 730 
1277 408 723 731 
1278 378 315 734 
1279 414 415 749 
1280 422 746 747 
1281 351 749 753 
1282 359 358 746 
1283 440 13 733 
1284 314 377 734 
1285 379 316 738 
1286 362 361 735 
1287 423 744 746 
1288 343 342 736 
1289 380 317 743 
1290 350 349 737 
1291 423 424 744 
1292 315 378 738 
1293 361 360 741 
1294 422 423 746 
1295 341 340 740 
1296 381 318 748 
1297 403 740 750 
1298 342 341 742 
1299 358 357 747 
1300 759 417 765 
1301 412 729 739 
1302 316 379 743 
1303 382 319 751 
1304 747 357 754 
1305 735 361 741 
1306 351 350 749 
1307 383 320 752 
1308 353 759 765 
1309 420 421 754 
1310 385 322 756 
1311 317 380 748 
1312 384 321 755 
1313 391 328 760 
1314 740 340 750 
1315 326 389 762 
1316 419 757 764 
1317 392 329 768 
1318 389 326 766 
1319 419 420 757 
1320 418 419 764 
1321 421 422 747 
1322 324 387 761 
1323 386 323 758 
1324 421 747 754 
1325 323 386 763 
1326 417 418 765 
1327 416 417 759 
1328 318 381 751 
1329 352 351 753 
1330 418 764 765 
1331 732 362 735 
1332 402 403 750 
1333 415 416 753 
1334 357 356 754 
1335 319 382 752 
1336 757 355 764 
1337 320 383 755 
1338 356 355 757 
1339 353 352 759 
1340 420 754 757 
1341 355 354 764 
1342 354 353 765 
1343 401 402 767 
1344 388 325 761 
1345 325 388 766 
1346 387 324 763 
1347 321 384 756 
1348 721 363 732 
1349 322 385 758 
1350 390 327 762 
1351 327 390 760 
1352 736 406 745 
1353 764 354 765 
1354 750 339 767 
1355 328 391 768 
1356 754 356 757 
1357 722 411 739 
1358 407 731 745 
1359 729 348 739 
1360 402 750 767 
1361 424 741 744 
1362 741 360 744 
1363 343 736 745 
1364 305 304 719 
1365 306 305 728 
1366 310 309 725 
1367 311 310 724 
1368 312 311 726 
1369 313 312 727 
1370 314 313 730 
1371 367 368 719 
1372 368 369 728 
1373 372 373 725 
1374 373 374 724 
1375 374 375 726 
1376 375 376 727 
1377 376 377 730 
1378 11 440 301 
1379 365 303 302 
1380 366 304 303 
1381 366 303 365 
1382 367 304 366 
1383 370 307 306 
1384 370 306 369 
1385 371 308 307 
1386 371 307 370 
1387 372 309 308 
1388 372 308 371 
$EndElements
